<svg xmlns="http://www.w3.org/2000/svg" xmlns:xlink="http://www.w3.org/1999/xlink" width="1024" zoomAndPan="magnify" viewBox="0 0 768 767.999994" height="1024" preserveAspectRatio="xMidYMid meet" version="1.0"><defs><clipPath id="39a868a897"><path d="M 172.15625 20 L 591 20 L 591 754 L 172.15625 754 Z M 172.15625 20 " clip-rule="nonzero"/></clipPath></defs><g clip-path="url(#39a868a897)"><path fill="#ffffff" d="M 298.234375 386.648438 L 575.503906 109.921875 C 576.71875 108.707031 577.875 107.433594 578.964844 106.105469 C 580.058594 104.773438 581.082031 103.394531 582.035156 101.964844 C 582.992188 100.535156 583.875 99.058594 584.6875 97.542969 C 585.496094 96.027344 586.234375 94.472656 586.890625 92.882812 C 587.550781 91.292969 588.128906 89.675781 588.628906 88.03125 C 589.128906 86.382812 589.542969 84.71875 589.878906 83.03125 C 590.214844 81.34375 590.46875 79.644531 590.636719 77.929688 C 590.804688 76.21875 590.890625 74.503906 590.890625 72.78125 C 590.890625 71.0625 590.804688 69.347656 590.636719 67.632812 C 590.46875 65.921875 590.214844 64.222656 589.878906 62.535156 C 589.542969 60.847656 589.128906 59.183594 588.628906 57.535156 C 588.128906 55.890625 587.550781 54.273438 586.890625 52.683594 C 586.234375 51.09375 585.496094 49.539062 584.6875 48.023438 C 583.875 46.503906 582.992188 45.03125 582.035156 43.601562 C 581.082031 42.171875 580.058594 40.789062 578.964844 39.460938 C 577.875 38.132812 576.71875 36.859375 575.503906 35.640625 C 574.289062 34.425781 573.015625 33.273438 571.683594 32.179688 C 570.355469 31.089844 568.972656 30.066406 567.542969 29.109375 C 566.113281 28.152344 564.640625 27.269531 563.121094 26.460938 C 561.605469 25.648438 560.050781 24.914062 558.460938 24.253906 C 556.875 23.597656 555.253906 23.019531 553.609375 22.519531 C 551.960938 22.019531 550.296875 21.601562 548.609375 21.265625 C 546.921875 20.929688 545.222656 20.679688 543.507812 20.511719 C 541.796875 20.34375 540.082031 20.257812 538.359375 20.257812 C 536.640625 20.257812 534.925781 20.34375 533.210938 20.511719 C 531.5 20.679688 529.800781 20.929688 528.113281 21.265625 C 526.425781 21.601562 524.757812 22.019531 523.113281 22.519531 C 521.464844 23.019531 519.847656 23.597656 518.257812 24.253906 C 516.667969 24.914062 515.117188 25.648438 513.597656 26.460938 C 512.082031 27.269531 510.609375 28.152344 509.175781 29.109375 C 507.746094 30.066406 506.367188 31.089844 505.035156 32.179688 C 503.707031 33.269531 502.433594 34.425781 501.21875 35.640625 L 187.328125 349.507812 C 186.105469 350.722656 184.945312 351.992188 183.847656 353.320312 C 182.75 354.644531 181.722656 356.023438 180.757812 357.453125 C 179.796875 358.882812 178.910156 360.355469 178.09375 361.871094 C 177.277344 363.386719 176.539062 364.941406 175.875 366.53125 C 175.214844 368.121094 174.632812 369.738281 174.128906 371.386719 C 173.628906 373.035156 173.207031 374.703125 172.871094 376.390625 C 172.53125 378.078125 172.277344 379.78125 172.109375 381.496094 C 171.9375 383.207031 171.855469 384.925781 171.855469 386.648438 C 171.855469 388.371094 171.9375 390.089844 172.109375 391.804688 C 172.277344 393.515625 172.53125 395.21875 172.871094 396.90625 C 173.207031 398.597656 173.628906 400.265625 174.128906 401.910156 C 174.632812 403.558594 175.214844 405.175781 175.875 406.765625 C 176.539062 408.355469 177.277344 409.910156 178.09375 411.425781 C 178.910156 412.941406 179.796875 414.417969 180.757812 415.84375 C 181.722656 417.273438 182.75 418.652344 183.847656 419.980469 C 184.945312 421.308594 186.105469 422.578125 187.328125 423.789062 L 501.21875 737.65625 C 502.429688 738.878906 503.699219 740.039062 505.027344 741.136719 C 506.355469 742.234375 507.734375 743.261719 509.164062 744.222656 C 510.589844 745.1875 512.0625 746.074219 513.582031 746.890625 C 515.097656 747.707031 516.652344 748.445312 518.242188 749.105469 C 519.832031 749.769531 521.449219 750.351562 523.097656 750.855469 C 524.746094 751.355469 526.414062 751.777344 528.101562 752.113281 C 529.789062 752.453125 531.492188 752.707031 533.207031 752.875 C 534.921875 753.046875 536.636719 753.128906 538.359375 753.128906 C 540.082031 753.128906 541.800781 753.046875 543.515625 752.875 C 545.230469 752.707031 546.929688 752.453125 548.621094 752.113281 C 550.308594 751.777344 551.976562 751.355469 553.625 750.855469 C 555.269531 750.351562 556.890625 749.769531 558.480469 749.105469 C 560.070312 748.445312 561.621094 747.707031 563.140625 746.890625 C 564.65625 746.074219 566.128906 745.1875 567.558594 744.222656 C 568.988281 743.261719 570.367188 742.234375 571.695312 741.136719 C 573.019531 740.039062 574.292969 738.878906 575.503906 737.65625 C 576.726562 736.445312 577.886719 735.171875 578.984375 733.847656 C 580.082031 732.519531 581.109375 731.140625 582.074219 729.710938 C 583.035156 728.28125 583.921875 726.808594 584.738281 725.292969 C 585.554688 723.777344 586.292969 722.222656 586.957031 720.632812 C 587.617188 719.042969 588.199219 717.425781 588.703125 715.777344 C 589.207031 714.128906 589.625 712.460938 589.964844 710.773438 C 590.300781 709.085938 590.554688 707.382812 590.722656 705.667969 C 590.894531 703.957031 590.980469 702.238281 590.980469 700.515625 C 590.980469 698.792969 590.894531 697.074219 590.722656 695.363281 C 590.554688 693.648438 590.300781 691.945312 589.964844 690.257812 C 589.625 688.570312 589.207031 686.902344 588.703125 685.253906 C 588.199219 683.605469 587.617188 681.988281 586.957031 680.398438 C 586.292969 678.808594 585.554688 677.253906 584.738281 675.738281 C 583.921875 674.222656 583.035156 672.75 582.074219 671.320312 C 581.109375 669.890625 580.082031 668.511719 578.984375 667.183594 C 577.886719 665.859375 576.726562 664.585938 575.503906 663.375 Z M 298.234375 386.648438 " fill-opacity="1" fill-rule="nonzero"/></g></svg>