<svg xmlns="http://www.w3.org/2000/svg" xmlns:xlink="http://www.w3.org/1999/xlink" width="1024" zoomAndPan="magnify" viewBox="0 0 768 767.999994" height="1024" preserveAspectRatio="xMidYMid meet" version="1.0"><defs><clipPath id="ec9dfcbccc"><path d="M 30.652344 7 L 737.152344 7 L 737.152344 767.882812 L 30.652344 767.882812 Z M 30.652344 7 " clip-rule="nonzero"/></clipPath></defs><g clip-path="url(#ec9dfcbccc)"><path fill="#f0f0f0" d="M 725.628906 767.75 L 493.117188 767.75 C 486.714844 767.75 481.527344 762.5625 481.527344 756.164062 L 481.527344 532.246094 C 481.53125 478.898438 437.640625 435 384.304688 434.996094 C 330.964844 434.992188 287.0625 478.894531 287.066406 532.246094 L 287.066406 756.164062 C 287.066406 762.5625 281.878906 767.75 275.480469 767.75 L 42.242188 767.75 C 35.839844 767.75 30.652344 762.5625 30.652344 756.164062 L 30.652344 359.207031 C 30.652344 356.128906 31.878906 353.175781 34.058594 351.003906 L 375.441406 10.476562 C 379.964844 5.96875 387.277344 5.964844 391.800781 10.46875 C 505.800781 123.972656 619.804688 237.476562 733.804688 350.996094 C 735.988281 353.171875 737.214844 356.125 737.214844 359.207031 L 737.214844 756.164062 C 737.214844 762.5625 732.027344 767.75 725.628906 767.75 Z M 725.628906 767.75 " fill-opacity="1" fill-rule="nonzero"/></g></svg>