<svg xmlns="http://www.w3.org/2000/svg" xmlns:xlink="http://www.w3.org/1999/xlink" width="1024" zoomAndPan="magnify" viewBox="0 0 768 767.999994" height="1024" preserveAspectRatio="xMidYMid meet" version="1.0"><defs><clipPath id="7d37f82d5e"><path d="M 33.378906 7 L 734.628906 7 L 734.628906 761.882812 L 33.378906 761.882812 Z M 33.378906 7 " clip-rule="nonzero"/></clipPath></defs><g clip-path="url(#7d37f82d5e)"><path fill="#f0f0f0" d="M 723.191406 761.753906 L 492.40625 761.753906 C 486.054688 761.753906 480.90625 756.609375 480.90625 750.257812 L 480.90625 528.101562 C 480.90625 475.175781 437.34375 431.621094 384.402344 431.617188 C 331.457031 431.613281 287.886719 475.167969 287.886719 528.101562 L 287.886719 750.257812 C 287.886719 756.609375 282.738281 761.753906 276.386719 761.753906 L 44.882812 761.753906 C 38.53125 761.753906 33.378906 756.609375 33.378906 750.257812 L 33.378906 356.425781 C 33.378906 353.371094 34.597656 350.441406 36.761719 348.285156 L 375.609375 10.4375 C 380.09375 5.964844 387.351562 5.960938 391.84375 10.429688 C 505 123.039062 618.152344 235.652344 731.304688 348.277344 C 733.472656 350.4375 734.691406 353.367188 734.691406 356.425781 L 734.691406 750.257812 C 734.691406 756.609375 729.542969 761.753906 723.191406 761.753906 Z M 503.90625 738.761719 L 711.691406 738.761719 L 711.691406 361.203125 C 602.371094 252.390625 493.058594 143.605469 383.738281 34.808594 L 56.382812 361.195312 L 56.382812 738.761719 L 264.886719 738.761719 L 264.886719 528.101562 C 264.882812 462.558594 318.832031 408.625 384.394531 408.621094 C 449.960938 408.621094 503.910156 462.558594 503.90625 528.101562 Z M 503.90625 738.761719 " fill-opacity="1" fill-rule="nonzero"/></g></svg>