<svg xmlns="http://www.w3.org/2000/svg" xmlns:xlink="http://www.w3.org/1999/xlink" width="1024" zoomAndPan="magnify" viewBox="0 0 768 767.999994" height="1024" preserveAspectRatio="xMidYMid meet" version="1.0"><defs><clipPath id="4a810abe8d"><path d="M 14.125 151 L 166 151 L 166 617 L 14.125 617 Z M 14.125 151 " clip-rule="nonzero"/></clipPath><clipPath id="776cdb5142"><path d="M 14.125 58.507812 L 172 58.507812 L 172 138 L 14.125 138 Z M 14.125 58.507812 " clip-rule="nonzero"/></clipPath><clipPath id="e2448ee94d"><path d="M 14.125 630 L 172 630 L 172 709.507812 L 14.125 709.507812 Z M 14.125 630 " clip-rule="nonzero"/></clipPath><clipPath id="6ab90ec6c9"><path d="M 179 58.507812 L 346 58.507812 L 346 138 L 179 138 Z M 179 58.507812 " clip-rule="nonzero"/></clipPath><clipPath id="9c815e8987"><path d="M 179 630 L 346 630 L 346 709.507812 L 179 709.507812 Z M 179 630 " clip-rule="nonzero"/></clipPath></defs><g clip-path="url(#4a810abe8d)"><path fill="#f0f0f0" d="M 14.175781 151.507812 L 165.375 151.507812 L 165.375 616.507812 L 14.175781 616.507812 Z M 14.175781 151.507812 " fill-opacity="1" fill-rule="evenodd"/></g><g clip-path="url(#776cdb5142)"><path fill="#f0f0f0" d="M 171.457031 78.511719 C 163.105469 66.449219 149.089844 58.507812 133.320312 58.507812 L 60.660156 58.507812 C 34.996094 58.507812 14.175781 79.441406 14.175781 105.007812 L 14.175781 137.074219 L 165.375 137.074219 L 165.375 105.007812 C 165.375 95.523438 167.640625 86.554688 171.457031 78.511719 Z M 171.457031 78.511719 " fill-opacity="1" fill-rule="evenodd"/></g><g clip-path="url(#e2448ee94d)"><path fill="#f0f0f0" d="M 171.457031 689.507812 C 163.105469 701.570312 149.089844 709.507812 133.320312 709.507812 L 60.660156 709.507812 C 34.996094 709.507812 14.175781 688.578125 14.175781 663.007812 L 14.175781 630.945312 L 165.375 630.945312 L 165.375 663.007812 C 165.375 672.496094 167.640625 681.464844 171.457031 689.507812 Z M 171.457031 689.507812 " fill-opacity="1" fill-rule="evenodd"/></g><path fill="#f0f0f0" d="M 179.804688 151.507812 L 345.535156 151.507812 L 345.535156 616.507812 L 179.804688 616.507812 Z M 179.804688 151.507812 " fill-opacity="1" fill-rule="evenodd"/><g clip-path="url(#6ab90ec6c9)"><path fill="#f0f0f0" d="M 179.804688 137.074219 L 179.804688 105.007812 C 179.804688 79.441406 200.726562 58.507812 226.285156 58.507812 L 299.050781 58.507812 C 324.613281 58.507812 345.535156 79.441406 345.535156 105.007812 L 345.535156 137.074219 Z M 179.804688 137.074219 " fill-opacity="1" fill-rule="evenodd"/></g><g clip-path="url(#9c815e8987)"><path fill="#f0f0f0" d="M 179.804688 630.945312 L 179.804688 663.007812 C 179.804688 688.578125 200.726562 709.507812 226.285156 709.507812 L 299.050781 709.507812 C 324.613281 709.507812 345.535156 688.578125 345.535156 663.007812 L 345.535156 630.945312 Z M 179.804688 630.945312 " fill-opacity="1" fill-rule="evenodd"/></g><path fill="#f0f0f0" d="M 370.425781 212.765625 L 519.585938 140.503906 L 722.152344 558.9375 L 572.992188 631.199219 Z M 370.425781 212.765625 " fill-opacity="1" fill-rule="evenodd"/><path fill="#f0f0f0" d="M 513.324219 127.488281 L 499.308594 98.617188 C 488.175781 75.625 460.246094 65.933594 437.261719 77.070312 L 371.710938 108.824219 C 348.730469 119.960938 339.039062 147.902344 350.171875 170.894531 L 364.085938 199.761719 Z M 513.324219 127.488281 " fill-opacity="1" fill-rule="evenodd"/><path fill="#f0f0f0" d="M 728.425781 571.96875 L 742.441406 600.835938 C 753.574219 623.832031 743.886719 651.769531 720.902344 663.007812 L 655.351562 694.664062 C 632.367188 705.796875 604.4375 696.105469 593.304688 673.113281 L 579.289062 644.246094 Z M 728.425781 571.96875 " fill-opacity="1" fill-rule="evenodd"/></svg>