<svg xmlns="http://www.w3.org/2000/svg" xmlns:xlink="http://www.w3.org/1999/xlink" width="1024" zoomAndPan="magnify" viewBox="0 0 768 767.999994" height="1024" preserveAspectRatio="xMidYMid meet" version="1.0"><defs><clipPath id="80ce6f8182"><path d="M 21.589844 149 L 207 149 L 207 619 L 21.589844 619 Z M 21.589844 149 " clip-rule="nonzero"/></clipPath><clipPath id="46191ae3f1"><path d="M 21.589844 61.453125 L 207 61.453125 L 207 178 L 21.589844 178 Z M 21.589844 61.453125 " clip-rule="nonzero"/></clipPath><clipPath id="3dcb7ab785"><path d="M 21.589844 590 L 207 590 L 207 706.453125 L 21.589844 706.453125 Z M 21.589844 590 " clip-rule="nonzero"/></clipPath><clipPath id="9f2fb0594e"><path d="M 178 61.453125 L 364 61.453125 L 364 178 L 178 178 Z M 178 61.453125 " clip-rule="nonzero"/></clipPath><clipPath id="faa4191264"><path d="M 178 590 L 364 590 L 364 706.453125 L 178 706.453125 Z M 178 590 " clip-rule="nonzero"/></clipPath></defs><g clip-path="url(#80ce6f8182)"><path fill="#f0f0f0" d="M 35.832031 149.488281 L 192.839844 149.488281 C 200.5625 149.488281 206.964844 155.890625 206.964844 163.617188 L 206.964844 604.191406 C 206.964844 612.015625 200.5625 618.320312 192.839844 618.320312 L 35.832031 618.320312 C 28.003906 618.320312 21.703125 612.015625 21.703125 604.191406 L 21.703125 163.617188 C 21.703125 155.890625 28.003906 149.488281 35.832031 149.488281 Z M 178.710938 177.746094 L 49.957031 177.746094 L 49.957031 590.058594 L 178.710938 590.058594 Z M 178.710938 177.746094 " fill-opacity="1" fill-rule="nonzero"/></g><g clip-path="url(#46191ae3f1)"><path fill="#f0f0f0" d="M 49.957031 149.488281 L 178.710938 149.488281 L 178.710938 119.601562 C 178.710938 111.367188 175.359375 103.84375 169.871094 98.457031 C 164.484375 93.070312 156.964844 89.613281 148.734375 89.613281 L 79.832031 89.613281 C 71.601562 89.613281 64.183594 93.070312 58.695312 98.457031 C 53.308594 103.84375 49.957031 111.367188 49.957031 119.601562 Z M 192.839844 177.746094 L 35.832031 177.746094 C 28.003906 177.746094 21.703125 171.445312 21.703125 163.617188 L 21.703125 119.601562 C 21.703125 103.539062 28.207031 89.003906 38.777344 78.53125 C 49.246094 67.960938 63.777344 61.453125 79.832031 61.453125 L 148.734375 61.453125 C 164.789062 61.453125 179.324219 67.960938 189.890625 78.53125 C 200.359375 89.003906 206.964844 103.539062 206.964844 119.601562 L 206.964844 163.617188 C 206.964844 171.445312 200.5625 177.746094 192.839844 177.746094 Z M 192.839844 177.746094 " fill-opacity="1" fill-rule="nonzero"/></g><g clip-path="url(#3dcb7ab785)"><path fill="#f0f0f0" d="M 35.832031 590.058594 L 192.839844 590.058594 C 200.5625 590.058594 206.964844 596.363281 206.964844 604.191406 L 206.964844 648.207031 C 206.964844 664.269531 200.359375 678.804688 189.890625 689.375 C 179.324219 699.847656 164.789062 706.453125 148.734375 706.453125 L 79.832031 706.453125 C 63.777344 706.453125 49.246094 699.847656 38.777344 689.375 C 28.207031 678.804688 21.703125 664.269531 21.703125 648.207031 L 21.703125 604.191406 C 21.703125 596.363281 28.003906 590.058594 35.832031 590.058594 Z M 178.710938 618.320312 L 49.957031 618.320312 L 49.957031 648.207031 C 49.957031 656.441406 53.308594 663.964844 58.695312 669.351562 C 64.183594 674.839844 71.601562 678.195312 79.832031 678.195312 L 148.734375 678.195312 C 156.964844 678.195312 164.484375 674.839844 169.871094 669.351562 C 175.359375 663.964844 178.710938 656.441406 178.710938 648.207031 Z M 178.710938 618.320312 " fill-opacity="1" fill-rule="nonzero"/></g><path fill="#f0f0f0" d="M 335.722656 177.746094 L 206.964844 177.746094 L 206.964844 590.058594 L 335.722656 590.058594 Z M 192.839844 149.488281 L 349.847656 149.488281 C 357.570312 149.488281 363.972656 155.890625 363.972656 163.617188 L 363.972656 604.191406 C 363.972656 612.015625 357.570312 618.320312 349.847656 618.320312 L 192.839844 618.320312 C 185.011719 618.320312 178.710938 612.015625 178.710938 604.191406 L 178.710938 163.617188 C 178.710938 155.890625 185.011719 149.488281 192.839844 149.488281 Z M 192.839844 149.488281 " fill-opacity="1" fill-rule="nonzero"/><g clip-path="url(#9f2fb0594e)"><path fill="#f0f0f0" d="M 349.847656 177.746094 L 192.839844 177.746094 C 185.011719 177.746094 178.710938 171.445312 178.710938 163.617188 L 178.710938 119.601562 C 178.710938 103.539062 185.214844 89.003906 195.785156 78.53125 C 206.253906 67.960938 220.886719 61.453125 236.839844 61.453125 L 305.742188 61.453125 C 321.796875 61.453125 336.332031 67.960938 346.898438 78.53125 C 357.367188 89.003906 363.972656 103.539062 363.972656 119.601562 L 363.972656 163.617188 C 363.972656 171.445312 357.570312 177.746094 349.847656 177.746094 Z M 206.964844 149.488281 L 335.722656 149.488281 L 335.722656 119.601562 C 335.722656 111.367188 332.367188 103.84375 326.878906 98.457031 C 321.492188 93.070312 313.972656 89.613281 305.742188 89.613281 L 236.839844 89.613281 C 228.609375 89.613281 221.191406 93.070312 215.703125 98.457031 C 210.316406 103.84375 206.964844 111.367188 206.964844 119.601562 Z M 206.964844 149.488281 " fill-opacity="1" fill-rule="nonzero"/></g><g clip-path="url(#faa4191264)"><path fill="#f0f0f0" d="M 335.722656 618.320312 L 206.964844 618.320312 L 206.964844 648.207031 C 206.964844 656.441406 210.316406 663.964844 215.703125 669.351562 C 221.191406 674.839844 228.609375 678.195312 236.839844 678.195312 L 305.742188 678.195312 C 313.972656 678.195312 321.492188 674.839844 326.878906 669.351562 C 332.367188 663.964844 335.722656 656.441406 335.722656 648.207031 Z M 192.839844 590.058594 L 349.847656 590.058594 C 357.570312 590.058594 363.972656 596.363281 363.972656 604.191406 L 363.972656 648.207031 C 363.972656 664.269531 357.367188 678.804688 346.898438 689.375 C 336.332031 699.847656 321.796875 706.453125 305.742188 706.453125 L 236.839844 706.453125 C 220.886719 706.453125 206.253906 699.847656 195.785156 689.375 C 185.214844 678.804688 178.710938 664.269531 178.710938 648.207031 L 178.710938 604.191406 C 178.710938 596.363281 185.011719 590.058594 192.839844 590.058594 Z M 192.839844 590.058594 " fill-opacity="1" fill-rule="nonzero"/></g><path fill="#f0f0f0" d="M 368.140625 208.550781 L 508.582031 140.542969 C 515.59375 137.085938 524.027344 140.035156 527.382812 147.046875 C 527.585938 147.351562 527.6875 147.65625 527.789062 147.964844 L 719.347656 543.605469 L 719.347656 543.503906 C 722.703125 550.515625 719.855469 559.054688 712.84375 562.410156 C 712.539062 562.511719 712.234375 562.714844 711.929688 562.816406 L 571.488281 630.824219 C 564.476562 634.28125 556.039062 631.332031 552.585938 624.316406 C 552.484375 624.011719 552.382812 623.707031 552.28125 623.402344 L 360.71875 227.761719 L 360.71875 227.863281 C 357.265625 220.746094 360.210938 212.3125 367.222656 208.957031 C 367.527344 208.855469 367.835938 208.652344 368.140625 208.550781 Z M 508.175781 172.054688 L 392.222656 228.167969 L 571.894531 599.3125 L 687.847656 543.195312 Z M 508.175781 172.054688 " fill-opacity="1" fill-rule="nonzero"/><path fill="#f0f0f0" d="M 379.925781 202.855469 L 495.878906 146.640625 L 482.871094 119.703125 L 482.769531 119.703125 C 482.667969 119.5 482.566406 119.195312 482.464844 118.992188 C 478.808594 111.976562 472.710938 106.894531 465.699219 104.453125 C 458.378906 102.015625 450.25 102.21875 442.832031 105.777344 C 442.527344 105.980469 442.222656 106.082031 441.917969 106.183594 L 380.738281 135.867188 C 373.320312 139.425781 368.039062 145.726562 365.597656 153.046875 C 363.058594 160.261719 363.261719 168.496094 366.816406 175.917969 Z M 514.679688 153.25 L 520.777344 165.855469 L 380.433594 233.964844 C 380.128906 234.066406 379.824219 234.269531 379.519531 234.371094 C 372.507812 237.722656 364.074219 234.878906 360.71875 227.863281 L 373.421875 221.664062 L 360.71875 227.761719 L 341.511719 188.117188 C 334.5 173.785156 334.09375 157.824219 338.972656 143.695312 C 343.851562 129.664062 354.113281 117.464844 368.546875 110.453125 L 429.621094 80.871094 C 430.230469 80.464844 430.941406 80.160156 431.550781 79.957031 C 445.675781 73.449219 461.226562 73.144531 474.945312 77.921875 C 488.664062 82.699219 500.554688 92.5625 507.667969 106.386719 C 507.972656 106.996094 508.378906 107.605469 508.582031 108.316406 L 526.976562 146.234375 C 527.078125 146.4375 527.28125 146.742188 527.382812 147.046875 C 530.839844 154.0625 527.890625 162.5 520.878906 165.957031 Z M 514.679688 153.25 " fill-opacity="1" fill-rule="nonzero"/><path fill="#f0f0f0" d="M 560.105469 605.003906 L 700.550781 536.996094 L 700.449219 536.996094 C 707.460938 533.640625 715.996094 536.488281 719.347656 543.503906 C 719.449219 543.808594 719.652344 544.113281 719.753906 544.417969 L 738.554688 583.25 C 745.464844 597.582031 745.976562 613.542969 740.996094 627.570312 C 736.117188 641.699219 725.953125 653.898438 711.523438 660.914062 L 649.433594 690.902344 C 635.101562 697.914062 619.148438 698.324219 605.125 693.441406 C 591 688.5625 578.804688 678.296875 571.894531 663.964844 L 552.6875 624.316406 L 552.585938 624.316406 C 549.230469 617.304688 552.179688 608.867188 559.191406 605.410156 C 559.496094 605.308594 559.800781 605.207031 560.105469 605.003906 Z M 700.140625 568.507812 L 584.191406 624.722656 L 597.199219 651.664062 C 600.753906 659.082031 607.054688 664.371094 614.371094 666.910156 C 621.585938 669.351562 629.820312 669.148438 637.238281 665.589844 L 699.328125 635.5 C 706.644531 631.941406 711.929688 625.640625 714.472656 618.320312 C 717.011719 611.101562 716.707031 602.867188 713.148438 595.449219 Z M 700.140625 568.507812 " fill-opacity="1" fill-rule="nonzero"/></svg>