<svg xmlns="http://www.w3.org/2000/svg" xmlns:xlink="http://www.w3.org/1999/xlink" width="1024" zoomAndPan="magnify" viewBox="0 0 768 767.999994" height="1024" preserveAspectRatio="xMidYMid meet" version="1.0"><defs><clipPath id="ca45ddc53f"><path d="M 143 165 L 625 165 L 625 661.546875 L 143 661.546875 Z M 143 165 " clip-rule="nonzero"/></clipPath></defs><rect x="-76.8" width="921.6" fill="#ffffff" y="-76.799999" height="921.599993" fill-opacity="1"/><rect x="-76.8" width="921.6" fill="#ffffff" y="-76.799999" height="921.599993" fill-opacity="1"/><rect x="-76.8" width="921.6" fill="#212163" y="-76.799999" height="921.599993" fill-opacity="1"/><g clip-path="url(#ca45ddc53f)"><path fill="#f5f5f5" d="M 384.003906 661.558594 C 402.9375 640.179688 511.019531 518.050781 578.589844 441.753906 C 639.128906 373.382812 637.832031 273.734375 582.785156 211.917969 C 527.738281 150.089844 438.734375 150.363281 383.980469 212.523438 C 329.230469 150.367188 240.226562 150.101562 185.1875 211.941406 C 130.144531 273.757812 128.863281 373.40625 189.402344 441.773438 C 256.976562 518.0625 365.085938 640.183594 384.003906 661.558594 " fill-opacity="1" fill-rule="nonzero"/></g></svg>