<svg xmlns="http://www.w3.org/2000/svg" xmlns:xlink="http://www.w3.org/1999/xlink" width="1024" zoomAndPan="magnify" viewBox="0 0 768 767.999994" height="1024" preserveAspectRatio="xMidYMid meet" version="1.0"><defs><clipPath id="45f1fb9602"><path d="M 84.683594 44.832031 L 683 44.832031 L 683 722.832031 L 84.683594 722.832031 Z M 84.683594 44.832031 " clip-rule="nonzero"/></clipPath></defs><g clip-path="url(#45f1fb9602)"><path fill="#ffffff" d="M 119.464844 722.933594 C 120.609375 722.933594 121.753906 722.875 122.894531 722.761719 C 124.035156 722.648438 125.167969 722.476562 126.292969 722.253906 C 127.414062 722.027344 128.527344 721.75 129.621094 721.417969 C 130.71875 721.082031 131.796875 720.695312 132.855469 720.257812 C 133.914062 719.820312 134.949219 719.328125 135.960938 718.789062 C 136.96875 718.246094 137.953125 717.660156 138.90625 717.023438 C 139.859375 716.382812 140.777344 715.703125 141.664062 714.976562 C 142.550781 714.25 143.398438 713.480469 144.207031 712.667969 C 145.019531 711.859375 145.785156 711.011719 146.515625 710.125 C 147.242188 709.238281 147.921875 708.320312 148.5625 707.367188 C 149.199219 706.414062 149.785156 705.433594 150.328125 704.421875 C 150.867188 703.414062 151.359375 702.378906 151.796875 701.320312 C 152.238281 700.261719 152.625 699.183594 152.957031 698.089844 C 153.289062 696.992188 153.570312 695.882812 153.792969 694.757812 C 154.019531 693.636719 154.1875 692.503906 154.300781 691.363281 C 154.414062 690.222656 154.472656 689.078125 154.472656 687.933594 L 154.472656 435.628906 C 154.472656 434.972656 154.515625 434.320312 154.601562 433.671875 C 154.6875 433.019531 154.816406 432.378906 154.984375 431.746094 C 155.15625 431.113281 155.367188 430.496094 155.617188 429.890625 C 155.867188 429.285156 156.15625 428.695312 156.484375 428.128906 C 156.8125 427.5625 157.175781 427.019531 157.574219 426.5 C 157.972656 425.976562 158.40625 425.488281 158.871094 425.023438 C 159.332031 424.558594 159.824219 424.128906 160.34375 423.730469 C 160.867188 423.332031 161.410156 422.96875 161.976562 422.640625 C 162.542969 422.3125 163.132812 422.023438 163.738281 421.773438 C 164.34375 421.519531 164.960938 421.3125 165.59375 421.140625 C 166.230469 420.972656 166.871094 420.84375 167.519531 420.757812 C 168.171875 420.671875 168.824219 420.628906 169.480469 420.628906 C 170.132812 420.628906 170.785156 420.671875 171.4375 420.757812 C 172.085938 420.84375 172.726562 420.972656 173.363281 421.140625 C 173.996094 421.3125 174.613281 421.523438 175.21875 421.773438 C 175.824219 422.023438 176.414062 422.3125 176.980469 422.640625 L 653.90625 697.941406 C 654.269531 698.152344 654.640625 698.351562 655.019531 698.539062 C 655.398438 698.726562 655.78125 698.898438 656.171875 699.0625 C 656.5625 699.222656 656.957031 699.371094 657.355469 699.507812 C 657.753906 699.644531 658.15625 699.765625 658.566406 699.875 C 658.972656 699.984375 659.382812 700.082031 659.796875 700.164062 C 660.210938 700.246094 660.625 700.316406 661.042969 700.371094 C 661.460938 700.425781 661.882812 700.464844 662.304688 700.496094 C 662.722656 700.523438 663.144531 700.535156 663.566406 700.535156 C 663.988281 700.535156 664.410156 700.523438 664.832031 700.496094 C 665.25 700.46875 665.671875 700.425781 666.089844 700.371094 C 666.507812 700.316406 666.921875 700.25 667.335938 700.167969 C 667.75 700.085938 668.160156 699.992188 668.570312 699.882812 C 668.976562 699.773438 669.378906 699.652344 669.78125 699.515625 C 670.179688 699.378906 670.574219 699.230469 670.964844 699.070312 C 671.355469 698.910156 671.738281 698.738281 672.117188 698.550781 C 672.496094 698.363281 672.867188 698.164062 673.230469 697.957031 C 673.597656 697.746094 673.957031 697.523438 674.308594 697.289062 C 674.65625 697.054688 675 696.808594 675.335938 696.554688 C 675.671875 696.296875 675.996094 696.03125 676.3125 695.753906 C 676.632812 695.476562 676.9375 695.1875 677.238281 694.890625 C 677.535156 694.589844 677.824219 694.285156 678.101562 693.96875 C 678.382812 693.652344 678.648438 693.324219 678.90625 692.992188 C 679.164062 692.65625 679.410156 692.3125 679.644531 691.964844 C 679.878906 691.613281 680.101562 691.257812 680.3125 690.890625 C 680.523438 690.527344 680.722656 690.15625 680.910156 689.777344 C 681.097656 689.398438 681.273438 689.015625 681.433594 688.625 C 681.597656 688.238281 681.746094 687.84375 681.882812 687.441406 C 682.019531 687.042969 682.140625 686.640625 682.25 686.234375 C 682.359375 685.828125 682.457031 685.417969 682.539062 685.003906 C 682.621094 684.589844 682.691406 684.171875 682.746094 683.753906 C 682.804688 683.335938 682.84375 682.917969 682.875 682.496094 C 682.902344 682.078125 682.914062 681.65625 682.917969 681.234375 L 682.917969 86.429688 C 682.917969 86.007812 682.902344 85.585938 682.875 85.164062 C 682.84375 84.746094 682.804688 84.324219 682.746094 83.90625 C 682.691406 83.488281 682.621094 83.074219 682.539062 82.660156 C 682.457031 82.246094 682.359375 81.835938 682.25 81.429688 C 682.140625 81.019531 682.019531 80.617188 681.882812 80.21875 C 681.746094 79.820312 681.597656 79.425781 681.433594 79.035156 C 681.273438 78.644531 681.097656 78.261719 680.910156 77.882812 C 680.722656 77.507812 680.523438 77.136719 680.3125 76.769531 C 680.101562 76.40625 679.878906 76.046875 679.644531 75.695312 C 679.40625 75.347656 679.164062 75.003906 678.90625 74.671875 C 678.648438 74.335938 678.378906 74.011719 678.101562 73.695312 C 677.824219 73.375 677.535156 73.070312 677.234375 72.773438 C 676.9375 72.472656 676.628906 72.1875 676.3125 71.910156 C 675.992188 71.628906 675.667969 71.363281 675.332031 71.105469 C 674.996094 70.851562 674.652344 70.605469 674.300781 70.371094 C 673.953125 70.136719 673.59375 69.914062 673.226562 69.707031 C 672.863281 69.496094 672.488281 69.296875 672.109375 69.109375 C 671.734375 68.925781 671.347656 68.75 670.957031 68.589844 C 670.566406 68.429688 670.171875 68.28125 669.773438 68.144531 C 669.375 68.011719 668.96875 67.890625 668.5625 67.78125 C 668.15625 67.671875 667.746094 67.574219 667.332031 67.496094 C 666.917969 67.414062 666.5 67.34375 666.082031 67.289062 C 665.664062 67.234375 665.242188 67.195312 664.824219 67.167969 C 664.402344 67.140625 663.980469 67.125 663.558594 67.128906 C 663.136719 67.128906 662.714844 67.140625 662.292969 67.167969 C 661.875 67.199219 661.453125 67.238281 661.035156 67.292969 C 660.617188 67.351562 660.203125 67.417969 659.789062 67.503906 C 659.375 67.585938 658.964844 67.679688 658.554688 67.789062 C 658.148438 67.898438 657.746094 68.023438 657.347656 68.160156 C 656.945312 68.292969 656.550781 68.445312 656.164062 68.605469 C 655.773438 68.765625 655.386719 68.941406 655.011719 69.128906 C 654.632812 69.316406 654.261719 69.515625 653.894531 69.726562 L 176.980469 345.019531 C 176.414062 345.347656 175.824219 345.636719 175.21875 345.886719 C 174.613281 346.136719 173.996094 346.347656 173.359375 346.515625 C 172.726562 346.6875 172.085938 346.8125 171.4375 346.898438 C 170.785156 346.984375 170.132812 347.027344 169.476562 347.027344 C 168.820312 347.027344 168.167969 346.984375 167.519531 346.898438 C 166.871094 346.8125 166.226562 346.6875 165.59375 346.515625 C 164.960938 346.347656 164.339844 346.136719 163.734375 345.886719 C 163.128906 345.636719 162.542969 345.347656 161.976562 345.019531 C 161.40625 344.691406 160.863281 344.328125 160.34375 343.929688 C 159.824219 343.53125 159.332031 343.097656 158.867188 342.632812 C 158.40625 342.171875 157.972656 341.679688 157.574219 341.160156 C 157.175781 340.640625 156.8125 340.097656 156.484375 339.527344 C 156.15625 338.960938 155.867188 338.375 155.617188 337.769531 C 155.367188 337.164062 155.15625 336.542969 154.984375 335.910156 C 154.816406 335.277344 154.6875 334.636719 154.601562 333.988281 C 154.515625 333.335938 154.472656 332.683594 154.472656 332.03125 L 154.472656 79.730469 C 154.472656 78.582031 154.417969 77.441406 154.304688 76.300781 C 154.191406 75.160156 154.023438 74.027344 153.800781 72.902344 C 153.578125 71.777344 153.300781 70.667969 152.964844 69.570312 C 152.632812 68.472656 152.246094 67.394531 151.808594 66.335938 C 151.371094 65.277344 150.878906 64.242188 150.339844 63.230469 C 149.800781 62.21875 149.210938 61.238281 148.574219 60.285156 C 147.9375 59.332031 147.253906 58.414062 146.527344 57.527344 C 145.800781 56.640625 145.03125 55.792969 144.21875 54.980469 C 143.410156 54.171875 142.5625 53.402344 141.675781 52.675781 C 140.789062 51.949219 139.867188 51.265625 138.914062 50.628906 C 137.960938 49.992188 136.980469 49.402344 135.96875 48.863281 C 134.957031 48.324219 133.921875 47.832031 132.863281 47.394531 C 131.804688 46.957031 130.726562 46.570312 129.628906 46.238281 C 128.53125 45.90625 127.417969 45.625 126.292969 45.402344 C 125.171875 45.179688 124.039062 45.011719 122.894531 44.898438 C 121.753906 44.785156 120.609375 44.730469 119.464844 44.730469 C 118.316406 44.730469 117.175781 44.785156 116.03125 44.898438 C 114.890625 45.011719 113.757812 45.179688 112.632812 45.402344 C 111.511719 45.625 110.398438 45.90625 109.300781 46.238281 C 108.203125 46.570312 107.125 46.957031 106.066406 47.394531 C 105.007812 47.832031 103.972656 48.324219 102.960938 48.863281 C 101.949219 49.402344 100.96875 49.992188 100.015625 50.628906 C 99.0625 51.265625 98.140625 51.949219 97.253906 52.675781 C 96.367188 53.402344 95.519531 54.171875 94.710938 54.980469 C 93.898438 55.792969 93.128906 56.640625 92.402344 57.527344 C 91.675781 58.414062 90.992188 59.332031 90.355469 60.285156 C 89.71875 61.238281 89.128906 62.21875 88.589844 63.230469 C 88.046875 64.242188 87.558594 65.277344 87.121094 66.335938 C 86.679688 67.394531 86.296875 68.472656 85.960938 69.570312 C 85.628906 70.667969 85.351562 71.777344 85.128906 72.902344 C 84.90625 74.027344 84.734375 75.160156 84.625 76.300781 C 84.511719 77.441406 84.457031 78.582031 84.457031 79.730469 L 84.457031 687.933594 C 84.457031 689.078125 84.515625 690.222656 84.628906 691.363281 C 84.742188 692.503906 84.910156 693.636719 85.136719 694.757812 C 85.359375 695.882812 85.640625 696.992188 85.972656 698.089844 C 86.304688 699.183594 86.691406 700.261719 87.132812 701.320312 C 87.570312 702.378906 88.0625 703.414062 88.601562 704.421875 C 89.140625 705.433594 89.730469 706.414062 90.367188 707.367188 C 91.003906 708.320312 91.6875 709.238281 92.414062 710.125 C 93.140625 711.011719 93.910156 711.859375 94.722656 712.667969 C 95.53125 713.480469 96.378906 714.25 97.265625 714.976562 C 98.152344 715.703125 99.070312 716.386719 100.023438 717.023438 C 100.976562 717.660156 101.960938 718.246094 102.96875 718.789062 C 103.980469 719.328125 105.015625 719.820312 106.074219 720.257812 C 107.132812 720.695312 108.210938 721.082031 109.308594 721.417969 C 110.402344 721.75 111.511719 722.027344 112.636719 722.253906 C 113.761719 722.476562 114.894531 722.648438 116.035156 722.761719 C 117.175781 722.875 118.320312 722.933594 119.464844 722.933594 Z M 119.464844 722.933594 " fill-opacity="1" fill-rule="nonzero"/></g></svg>