<svg xmlns="http://www.w3.org/2000/svg" xmlns:xlink="http://www.w3.org/1999/xlink" width="1024" zoomAndPan="magnify" viewBox="0 0 768 767.999994" height="1024" preserveAspectRatio="xMidYMid meet" version="1.0"><defs><clipPath id="7cdba5fabf"><path d="M 12.808594 240 L 755.308594 240 L 755.308594 719 L 12.808594 719 Z M 12.808594 240 " clip-rule="nonzero"/></clipPath><clipPath id="f18ee58392"><path d="M 12.808594 48.578125 L 755.308594 48.578125 L 755.308594 528 L 12.808594 528 Z M 12.808594 48.578125 " clip-rule="nonzero"/></clipPath></defs><g clip-path="url(#7cdba5fabf)"><path fill="#ffffff" d="M 743.332031 240.21875 L 659.503906 240.21875 C 658.714844 240.21875 657.9375 240.292969 657.167969 240.445312 C 656.394531 240.601562 655.648438 240.828125 654.921875 241.128906 C 654.195312 241.429688 653.503906 241.796875 652.851562 242.234375 C 652.195312 242.671875 651.589844 243.167969 651.035156 243.722656 C 650.480469 244.277344 649.980469 244.882812 649.546875 245.535156 C 649.109375 246.1875 648.738281 246.878906 648.4375 247.605469 C 648.136719 248.332031 647.910156 249.078125 647.757812 249.851562 C 647.605469 250.621094 647.527344 251.398438 647.527344 252.183594 L 647.527344 455.636719 C 647.527344 457.398438 647.484375 459.160156 647.398438 460.917969 C 647.3125 462.679688 647.179688 464.4375 647.007812 466.191406 C 646.835938 467.945312 646.621094 469.695312 646.359375 471.4375 C 646.101562 473.183594 645.800781 474.917969 645.457031 476.648438 C 645.113281 478.375 644.726562 480.097656 644.296875 481.804688 C 643.867188 483.515625 643.398438 485.214844 642.886719 486.902344 C 642.375 488.585938 641.820312 490.261719 641.226562 491.921875 C 640.632812 493.582031 639.996094 495.226562 639.324219 496.851562 C 638.648438 498.480469 637.933594 500.09375 637.179688 501.6875 C 636.425781 503.28125 635.632812 504.855469 634.800781 506.410156 C 633.96875 507.964844 633.101562 509.496094 632.191406 511.007812 C 631.285156 512.519531 630.34375 514.007812 629.363281 515.476562 C 628.382812 516.941406 627.367188 518.382812 626.316406 519.796875 C 625.265625 521.210938 624.179688 522.601562 623.0625 523.964844 C 621.941406 525.328125 620.789062 526.660156 619.605469 527.96875 C 618.421875 529.273438 617.207031 530.550781 615.957031 531.796875 C 614.710938 533.042969 613.433594 534.257812 612.128906 535.441406 C 610.820312 536.625 609.484375 537.777344 608.121094 538.894531 C 606.757812 540.011719 605.367188 541.097656 603.949219 542.148438 C 602.535156 543.199219 601.09375 544.210938 599.625 545.191406 C 598.160156 546.171875 596.667969 547.113281 595.15625 548.019531 C 593.644531 548.925781 592.109375 549.792969 590.554688 550.625 C 588.996094 551.457031 587.421875 552.25 585.828125 553.003906 C 584.234375 553.757812 582.621094 554.46875 580.992188 555.144531 C 579.363281 555.820312 577.714844 556.453125 576.054688 557.046875 C 574.394531 557.640625 572.71875 558.195312 571.03125 558.707031 C 569.34375 559.21875 567.644531 559.6875 565.933594 560.117188 C 564.222656 560.542969 562.503906 560.929688 560.773438 561.273438 C 559.042969 561.617188 557.304688 561.917969 555.558594 562.179688 C 553.816406 562.4375 552.066406 562.652344 550.308594 562.824219 C 548.554688 562.996094 546.796875 563.128906 545.035156 563.214844 C 543.273438 563.300781 541.507812 563.34375 539.746094 563.34375 L 204.421875 563.34375 L 204.421875 539.410156 C 204.421875 538.902344 204.386719 538.394531 204.320312 537.890625 C 204.253906 537.386719 204.15625 536.890625 204.027344 536.398438 C 203.898438 535.90625 203.738281 535.425781 203.546875 534.957031 C 203.359375 534.484375 203.136719 534.027344 202.890625 533.585938 C 202.640625 533.140625 202.363281 532.714844 202.0625 532.308594 C 201.757812 531.902344 201.429688 531.515625 201.078125 531.148438 C 200.726562 530.78125 200.351562 530.441406 199.957031 530.121094 C 199.558594 529.804688 199.144531 529.511719 198.710938 529.246094 C 198.277344 528.980469 197.828125 528.742188 197.367188 528.535156 C 196.902344 528.324219 196.429688 528.144531 195.941406 528 C 195.457031 527.851562 194.960938 527.734375 194.460938 527.648438 C 193.960938 527.5625 193.457031 527.507812 192.949219 527.488281 C 192.441406 527.464844 191.933594 527.476562 191.425781 527.519531 C 190.921875 527.5625 190.417969 527.640625 189.921875 527.746094 C 189.425781 527.851562 188.9375 527.992188 188.457031 528.160156 C 187.976562 528.328125 187.511719 528.527344 187.058594 528.757812 L 19.394531 612.53125 C 18.414062 613.03125 17.519531 613.660156 16.714844 614.40625 C 15.90625 615.15625 15.214844 616 14.640625 616.941406 C 14.0625 617.878906 13.628906 618.878906 13.328125 619.941406 C 13.03125 621 12.882812 622.082031 12.882812 623.183594 C 12.882812 624.285156 13.03125 625.363281 13.328125 626.425781 C 13.628906 627.484375 14.0625 628.484375 14.640625 629.425781 C 15.214844 630.363281 15.90625 631.207031 16.714844 631.957031 C 17.519531 632.707031 18.414062 633.332031 19.394531 633.832031 L 187.058594 717.605469 C 188.75 718.472656 190.546875 718.910156 192.445312 718.921875 C 194.734375 718.929688 196.851562 718.332031 198.792969 717.128906 C 199.65625 716.589844 200.4375 715.949219 201.136719 715.210938 C 201.839844 714.476562 202.433594 713.660156 202.925781 712.769531 C 203.417969 711.878906 203.792969 710.941406 204.046875 709.957031 C 204.300781 708.972656 204.425781 707.972656 204.421875 706.957031 L 204.421875 683.019531 L 551.722656 683.019531 C 555.050781 683.019531 558.382812 682.9375 561.710938 682.773438 C 565.039062 682.613281 568.359375 682.367188 571.675781 682.039062 C 574.992188 681.714844 578.296875 681.308594 581.59375 680.816406 C 584.890625 680.328125 588.171875 679.761719 591.4375 679.109375 C 594.707031 678.460938 597.957031 677.730469 601.1875 676.921875 C 604.421875 676.113281 607.632812 675.226562 610.820312 674.261719 C 614.007812 673.292969 617.171875 672.25 620.308594 671.128906 C 623.445312 670.003906 626.550781 668.808594 629.628906 667.535156 C 632.710938 666.257812 635.753906 664.910156 638.765625 663.488281 C 641.777344 662.0625 644.753906 660.566406 647.691406 658.996094 C 650.628906 657.425781 653.527344 655.785156 656.386719 654.074219 C 659.242188 652.363281 662.058594 650.582031 664.828125 648.734375 C 667.597656 646.882812 670.320312 644.964844 673 642.984375 C 675.675781 641 678.300781 638.953125 680.875 636.839844 C 683.453125 634.726562 685.972656 632.554688 688.441406 630.316406 C 690.910156 628.082031 693.324219 625.785156 695.679688 623.429688 C 698.035156 621.078125 700.332031 618.664062 702.570312 616.199219 C 704.808594 613.730469 706.984375 611.210938 709.097656 608.636719 C 711.210938 606.0625 713.261719 603.441406 715.246094 600.765625 C 717.230469 598.089844 719.148438 595.371094 721 592.601562 C 722.851562 589.832031 724.632812 587.019531 726.34375 584.164062 C 728.058594 581.308594 729.699219 578.414062 731.269531 575.476562 C 732.839844 572.539062 734.339844 569.566406 735.761719 566.554688 C 737.1875 563.546875 738.539062 560.503906 739.8125 557.425781 C 741.085938 554.351562 742.285156 551.246094 743.410156 548.109375 C 744.53125 544.976562 745.574219 541.816406 746.542969 538.628906 C 747.511719 535.441406 748.398438 532.234375 749.207031 529.003906 C 750.019531 525.773438 750.746094 522.527344 751.398438 519.261719 C 752.046875 515.996094 752.617188 512.714844 753.105469 509.421875 C 753.59375 506.128906 754.003906 502.824219 754.328125 499.511719 C 754.65625 496.199219 754.902344 492.878906 755.0625 489.554688 C 755.226562 486.226562 755.308594 482.898438 755.308594 479.570312 L 755.308594 252.183594 C 755.308594 251.398438 755.234375 250.621094 755.078125 249.851562 C 754.925781 249.078125 754.699219 248.332031 754.398438 247.605469 C 754.097656 246.878906 753.726562 246.1875 753.292969 245.535156 C 752.855469 244.882812 752.359375 244.277344 751.800781 243.722656 C 751.246094 243.167969 750.640625 242.671875 749.988281 242.234375 C 749.332031 241.796875 748.644531 241.429688 747.917969 241.128906 C 747.191406 240.828125 746.441406 240.601562 745.671875 240.445312 C 744.898438 240.292969 744.121094 240.21875 743.332031 240.21875 Z M 743.332031 240.21875 " fill-opacity="1" fill-rule="nonzero"/></g><g clip-path="url(#f18ee58392)"><path fill="#ffffff" d="M 748.722656 133.824219 L 581.0625 50.050781 C 580.609375 49.820312 580.140625 49.625 579.660156 49.453125 C 579.183594 49.285156 578.695312 49.148438 578.199219 49.039062 C 577.699219 48.933594 577.199219 48.855469 576.691406 48.8125 C 576.1875 48.769531 575.679688 48.761719 575.171875 48.78125 C 574.664062 48.800781 574.160156 48.855469 573.65625 48.941406 C 573.15625 49.027344 572.664062 49.144531 572.175781 49.292969 C 571.691406 49.441406 571.214844 49.617188 570.753906 49.828125 C 570.289062 50.035156 569.839844 50.273438 569.40625 50.539062 C 568.972656 50.804688 568.558594 51.097656 568.164062 51.414062 C 567.769531 51.734375 567.394531 52.074219 567.042969 52.441406 C 566.6875 52.808594 566.359375 53.195312 566.058594 53.601562 C 565.753906 54.011719 565.480469 54.4375 565.230469 54.878906 C 564.980469 55.320312 564.761719 55.777344 564.570312 56.25 C 564.378906 56.71875 564.21875 57.199219 564.089844 57.691406 C 563.960938 58.183594 563.863281 58.679688 563.796875 59.183594 C 563.730469 59.6875 563.699219 60.195312 563.695312 60.703125 L 563.695312 84.636719 L 216.398438 84.636719 C 213.066406 84.636719 209.738281 84.71875 206.410156 84.882812 C 203.082031 85.046875 199.757812 85.289062 196.441406 85.617188 C 193.128906 85.945312 189.820312 86.351562 186.527344 86.839844 C 183.230469 87.328125 179.949219 87.898438 176.679688 88.546875 C 173.414062 89.195312 170.164062 89.925781 166.929688 90.734375 C 163.699219 91.542969 160.488281 92.429688 157.300781 93.398438 C 154.109375 94.363281 150.949219 95.410156 147.8125 96.53125 C 144.675781 97.652344 141.566406 98.851562 138.488281 100.125 C 135.410156 101.398438 132.363281 102.746094 129.351562 104.171875 C 126.339844 105.59375 123.367188 107.089844 120.425781 108.660156 C 117.488281 110.230469 114.589844 111.871094 111.734375 113.582031 C 108.875 115.292969 106.0625 117.074219 103.289062 118.925781 C 100.519531 120.773438 97.796875 122.691406 95.121094 124.675781 C 92.445312 126.660156 89.820312 128.707031 87.242188 130.820312 C 84.667969 132.929688 82.144531 135.105469 79.675781 137.339844 C 77.207031 139.578125 74.796875 141.871094 72.4375 144.226562 C 70.082031 146.582031 67.785156 148.992188 65.550781 151.457031 C 63.3125 153.925781 61.136719 156.445312 59.023438 159.019531 C 56.910156 161.59375 54.859375 164.21875 52.875 166.890625 C 50.890625 169.566406 48.972656 172.289062 47.121094 175.058594 C 45.269531 177.824219 43.488281 180.636719 41.773438 183.492188 C 40.0625 186.347656 38.417969 189.246094 36.847656 192.183594 C 35.277344 195.117188 33.78125 198.089844 32.355469 201.101562 C 30.933594 204.109375 29.582031 207.15625 28.308594 210.230469 C 27.03125 213.308594 25.832031 216.414062 24.710938 219.546875 C 23.589844 222.683594 22.542969 225.84375 21.574219 229.027344 C 20.609375 232.214844 19.71875 235.421875 18.910156 238.652344 C 18.101562 241.882812 17.371094 245.128906 16.722656 248.394531 C 16.070312 251.660156 15.503906 254.941406 15.011719 258.234375 C 14.523438 261.527344 14.117188 264.832031 13.789062 268.144531 C 13.464844 271.460938 13.21875 274.777344 13.054688 278.105469 C 12.890625 281.429688 12.808594 284.757812 12.808594 288.085938 L 12.808594 515.472656 C 12.808594 516.257812 12.886719 517.039062 13.039062 517.808594 C 13.191406 518.578125 13.421875 519.328125 13.722656 520.054688 C 14.023438 520.777344 14.390625 521.46875 14.828125 522.121094 C 15.265625 522.773438 15.761719 523.378906 16.316406 523.9375 C 16.875 524.492188 17.476562 524.988281 18.132812 525.425781 C 18.785156 525.859375 19.476562 526.230469 20.203125 526.53125 C 20.929688 526.832031 21.679688 527.058594 22.449219 527.210938 C 23.21875 527.363281 24 527.441406 24.785156 527.441406 L 108.617188 527.441406 C 109.402344 527.441406 110.179688 527.363281 110.953125 527.210938 C 111.722656 527.058594 112.472656 526.832031 113.199219 526.53125 C 113.925781 526.230469 114.617188 525.859375 115.269531 525.425781 C 115.921875 524.988281 116.527344 524.492188 117.085938 523.9375 C 117.640625 523.378906 118.136719 522.773438 118.574219 522.121094 C 119.011719 521.46875 119.378906 520.777344 119.679688 520.054688 C 119.980469 519.328125 120.207031 518.578125 120.363281 517.808594 C 120.515625 517.039062 120.59375 516.257812 120.59375 515.472656 L 120.59375 312.023438 C 120.59375 310.261719 120.636719 308.5 120.722656 306.738281 C 120.808594 304.976562 120.9375 303.21875 121.109375 301.464844 C 121.285156 299.710938 121.5 297.960938 121.757812 296.21875 C 122.015625 294.476562 122.320312 292.738281 122.664062 291.011719 C 123.007812 289.28125 123.394531 287.5625 123.820312 285.851562 C 124.25 284.140625 124.722656 282.445312 125.234375 280.757812 C 125.746094 279.070312 126.296875 277.398438 126.890625 275.738281 C 127.488281 274.078125 128.121094 272.433594 128.796875 270.804688 C 129.472656 269.175781 130.1875 267.566406 130.941406 265.972656 C 131.695312 264.378906 132.488281 262.804688 133.320312 261.25 C 134.148438 259.695312 135.019531 258.160156 135.925781 256.648438 C 136.832031 255.136719 137.777344 253.648438 138.757812 252.183594 C 139.738281 250.71875 140.75 249.277344 141.800781 247.859375 C 142.851562 246.445312 143.9375 245.054688 145.058594 243.691406 C 146.175781 242.332031 147.328125 240.996094 148.511719 239.691406 C 149.699219 238.382812 150.914062 237.109375 152.160156 235.859375 C 153.40625 234.613281 154.683594 233.398438 155.992188 232.214844 C 157.300781 231.03125 158.632812 229.882812 159.996094 228.761719 C 161.363281 227.644531 162.75 226.558594 164.167969 225.511719 C 165.585938 224.460938 167.027344 223.445312 168.492188 222.464844 C 169.960938 221.488281 171.449219 220.542969 172.964844 219.636719 C 174.476562 218.730469 176.011719 217.863281 177.566406 217.03125 C 179.121094 216.199219 180.695312 215.410156 182.292969 214.65625 C 183.886719 213.902344 185.496094 213.1875 187.128906 212.511719 C 188.757812 211.839844 190.402344 211.203125 192.0625 210.609375 C 193.722656 210.015625 195.398438 209.464844 197.085938 208.953125 C 198.773438 208.441406 200.472656 207.96875 202.183594 207.542969 C 203.894531 207.113281 205.617188 206.726562 207.347656 206.382812 C 209.078125 206.039062 210.8125 205.738281 212.558594 205.480469 C 214.304688 205.222656 216.054688 205.003906 217.808594 204.832031 C 219.566406 204.660156 221.324219 204.53125 223.085938 204.445312 C 224.847656 204.355469 226.609375 204.3125 228.375 204.3125 L 563.695312 204.3125 L 563.695312 228.25 C 563.695312 229.265625 563.820312 230.265625 564.074219 231.253906 C 564.328125 232.238281 564.699219 233.175781 565.191406 234.0625 C 565.683594 234.953125 566.28125 235.769531 566.980469 236.507812 C 567.679688 237.246094 568.460938 237.882812 569.324219 238.421875 C 571.269531 239.625 573.386719 240.222656 575.671875 240.21875 C 577.574219 240.207031 579.371094 239.765625 581.0625 238.902344 L 748.722656 155.125 C 749.703125 154.625 750.597656 154 751.40625 153.25 C 752.214844 152.5 752.90625 151.65625 753.480469 150.71875 C 754.054688 149.777344 754.492188 148.777344 754.789062 147.71875 C 755.089844 146.65625 755.238281 145.578125 755.238281 144.476562 C 755.238281 143.375 755.089844 142.292969 754.789062 141.234375 C 754.492188 140.171875 754.054688 139.171875 753.480469 138.234375 C 752.90625 137.292969 752.214844 136.449219 751.40625 135.699219 C 750.597656 134.953125 749.703125 134.328125 748.722656 133.824219 Z M 748.722656 133.824219 " fill-opacity="1" fill-rule="nonzero"/></g></svg>