<svg xmlns="http://www.w3.org/2000/svg" xmlns:xlink="http://www.w3.org/1999/xlink" width="1024" zoomAndPan="magnify" viewBox="0 0 768 767.999994" height="1024" preserveAspectRatio="xMidYMid meet" version="1.0"><defs><clipPath id="b4e6ef9a74"><path d="M 1.273438 16 L 767 16 L 767 751 L 1.273438 751 Z M 1.273438 16 " clip-rule="nonzero"/></clipPath><clipPath id="a8d839d121"><path d="M 302 76.800781 L 316 76.800781 L 316 87 L 302 87 Z M 302 76.800781 " clip-rule="nonzero"/></clipPath><clipPath id="110d6e4596"><path d="M 73.050781 243 L 91 243 L 91 264 L 73.050781 264 Z M 73.050781 243 " clip-rule="nonzero"/></clipPath><clipPath id="bca77d6a1d"><path d="M 84 81 L 593.550781 81 L 593.550781 601 L 84 601 Z M 84 81 " clip-rule="nonzero"/></clipPath></defs><g clip-path="url(#b4e6ef9a74)"><path fill="#F0F0F0" d="M 763.289062 730.332031 L 571.480469 538.546875 C 616.085938 483.441406 642.851562 413.335938 642.851562 337.085938 C 642.851562 160.222656 498.945312 16.335938 322.0625 16.335938 C 145.179688 16.335938 1.273438 160.222656 1.273438 337.085938 C 1.273438 513.945312 145.179688 657.832031 322.0625 657.832031 C 414.304688 657.832031 497.558594 618.691406 556.132812 556.164062 L 746.808594 746.8125 C 751.328125 751.335938 758.769531 751.335938 763.289062 746.8125 C 767.808594 742.292969 767.808594 734.855469 763.289062 730.332031 Z M 322.0625 634.527344 C 158.03125 634.527344 24.582031 501.097656 24.582031 337.085938 C 24.582031 173.074219 158.03125 39.640625 322.0625 39.640625 C 486.09375 39.640625 619.542969 173.074219 619.542969 337.085938 C 619.542969 501.097656 486.09375 634.527344 322.0625 634.527344 Z M 322.0625 634.527344 " fill-opacity="1" fill-rule="nonzero"/></g><path fill="#F0F0F0" d="M 275.371094 83.988281 C 275.304688 83.332031 275.195312 82.628906 275.007812 81.855469 C 273.980469 83.003906 274.335938 83.609375 275.371094 83.988281 Z M 275.371094 83.988281 " fill-opacity="1" fill-rule="nonzero"/><path fill="#F0F0F0" d="M 365.230469 81.609375 C 367.425781 81.625 369.617188 81.640625 369.617188 81.640625 C 370.03125 81.730469 370.300781 81.769531 370.464844 81.78125 C 370.527344 81.773438 370.59375 81.765625 370.65625 81.757812 C 370.667969 81.46875 362.230469 79.019531 361.984375 81.597656 C 362.066406 81.59375 362.132812 81.59375 362.21875 81.589844 C 363.039062 81.59375 364.136719 81.601562 365.230469 81.609375 Z M 365.230469 81.609375 " fill-opacity="1" fill-rule="nonzero"/><path fill="#F0F0F0" d="M 323.082031 83.355469 C 322.082031 82.941406 320.976562 82.613281 319.816406 82.410156 C 320.738281 82.71875 321.855469 83.039062 323.082031 83.355469 Z M 323.082031 83.355469 " fill-opacity="1" fill-rule="nonzero"/><path fill="#F0F0F0" d="M 347.421875 86.070312 C 345.710938 85.585938 343.957031 85.210938 342.140625 84.941406 C 340.59375 84.726562 339.007812 84.597656 337.394531 84.578125 C 335.78125 84.632812 334.136719 84.796875 332.464844 85.082031 C 332.464844 85.082031 332.496094 85.132812 332.535156 85.203125 C 334.84375 85.53125 337.25 85.796875 339.683594 85.945312 C 342.269531 86.179688 344.871094 86.191406 347.421875 86.070312 Z M 347.421875 86.070312 " fill-opacity="1" fill-rule="nonzero"/><g clip-path="url(#a8d839d121)"><path fill="#F0F0F0" d="M 312.175781 83.84375 C 314.132812 83.40625 315.433594 83.121094 315.433594 83.121094 C 315.433594 83.121094 314.28125 81.53125 313.128906 79.945312 C 311.953125 78.371094 310.78125 76.796875 310.78125 76.796875 C 301.035156 76.945312 302.234375 79.601562 303.253906 82.34375 C 303.753906 83.707031 304.191406 85.101562 303.261719 86.222656 C 303.859375 86.0625 304.464844 85.902344 305.074219 85.742188 C 307.65625 85.050781 310.238281 84.359375 312.175781 83.84375 Z M 312.175781 83.84375 " fill-opacity="1" fill-rule="nonzero"/></g><path fill="#F0F0F0" d="M 303.242188 86.25 C 303.25 86.242188 303.253906 86.230469 303.261719 86.222656 C 301.320312 86.746094 299.472656 87.28125 298.023438 87.78125 C 296.117188 88.394531 294.847656 88.800781 294.847656 88.800781 C 297.402344 88.539062 299.253906 88.167969 300.589844 87.714844 C 301.929688 87.296875 302.765625 86.824219 303.242188 86.25 Z M 303.242188 86.25 " fill-opacity="1" fill-rule="nonzero"/><path fill="#F0F0F0" d="M 466.90625 572.757812 C 466.332031 573.566406 465.492188 574.480469 464.542969 575.425781 C 465.539062 575.125 466.511719 574.746094 467.429688 574.199219 Z M 466.90625 572.757812 " fill-opacity="1" fill-rule="nonzero"/><path fill="#F0F0F0" d="M 465.566406 569.140625 L 466.90625 572.761719 C 468.074219 570.988281 468.128906 569.632812 465.566406 569.140625 Z M 465.566406 569.140625 " fill-opacity="1" fill-rule="nonzero"/><path fill="#F0F0F0" d="M 432.5 585.632812 C 429.847656 588.351562 427.039062 590.828125 427.039062 590.828125 C 429.46875 590.351562 433.53125 589.132812 436.285156 587.335938 C 439.050781 585.542969 440.464844 583.203125 437.742188 580.3125 C 437.746094 580.3125 435.121094 582.972656 432.5 585.632812 Z M 432.5 585.632812 " fill-opacity="1" fill-rule="nonzero"/><path fill="#F0F0F0" d="M 513.917969 494.550781 L 511.519531 492.910156 C 511.675781 493.949219 512.246094 494.675781 513.917969 494.550781 Z M 513.917969 494.550781 " fill-opacity="1" fill-rule="nonzero"/><path fill="#F0F0F0" d="M 106.695312 238.863281 C 106.5 238.316406 106.195312 237.765625 105.746094 237.1875 C 105.742188 237.1875 106.113281 237.84375 106.695312 238.863281 Z M 106.695312 238.863281 " fill-opacity="1" fill-rule="nonzero"/><path fill="#F0F0F0" d="M 335.554688 592.136719 L 335.265625 591.726562 C 335.238281 591.898438 335.34375 592.03125 335.554688 592.136719 Z M 335.554688 592.136719 " fill-opacity="1" fill-rule="nonzero"/><path fill="#F0F0F0" d="M 473.289062 131.628906 C 473.96875 130.949219 474.433594 130.484375 474.433594 130.484375 C 473.863281 130.777344 473.515625 131.175781 473.289062 131.628906 Z M 473.289062 131.628906 " fill-opacity="1" fill-rule="nonzero"/><path fill="#F0F0F0" d="M 579.667969 402.121094 C 579.507812 402.132812 579.371094 402.132812 579.21875 402.148438 C 579.207031 402.375 579.203125 402.601562 579.191406 402.832031 C 579.351562 402.59375 579.496094 402.363281 579.667969 402.121094 Z M 579.667969 402.121094 " fill-opacity="1" fill-rule="nonzero"/><path fill="#F0F0F0" d="M 576.496094 424.171875 C 577.5625 417.726562 578.707031 409.917969 579.179688 403.195312 C 579.1875 403.070312 579.1875 402.957031 579.195312 402.832031 C 576.914062 406.25 575.898438 409.101562 575.8125 412.265625 C 575.726562 415.644531 576.273438 419.3125 576.496094 424.171875 Z M 576.496094 424.171875 " fill-opacity="1" fill-rule="nonzero"/><path fill="#F0F0F0" d="M 557.125 476.820312 C 557.636719 477.238281 558.214844 477.652344 558.894531 478.070312 C 558.804688 476.53125 558.125 476.351562 557.125 476.820312 Z M 557.125 476.820312 " fill-opacity="1" fill-rule="nonzero"/><path fill="#F0F0F0" d="M 542.554688 474.484375 C 542.554688 474.484375 544.339844 471.96875 546.039062 469.382812 C 547.675781 466.757812 549.3125 464.128906 549.3125 464.128906 C 551.460938 467.125 550.136719 470.730469 548.535156 473.917969 C 546.964844 477.128906 545.441406 480.085938 547.605469 482.363281 C 550.226562 483.15625 554.667969 477.972656 557.125 476.820312 C 552.820312 473.320312 554.085938 469.808594 554.917969 466.960938 C 555.839844 463.777344 556.113281 461.535156 547.34375 461.175781 C 546.953125 461.929688 546.570312 462.703125 546.195312 463.535156 C 544.910156 466.445312 543.765625 469.921875 542.554688 474.484375 Z M 542.554688 474.484375 " fill-opacity="1" fill-rule="nonzero"/><path fill="#F0F0F0" d="M 556.300781 436.789062 C 555.855469 441.46875 555.019531 445.082031 553.996094 448.109375 C 553.195312 450.183594 552.3125 451.972656 551.410156 453.679688 C 552.386719 453.136719 553.414062 452.988281 554.472656 452.839844 C 557.207031 452.433594 560.324219 451.988281 562.511719 443.675781 C 562.511719 443.675781 560.964844 441.933594 559.417969 440.195312 C 557.859375 438.492188 556.300781 436.789062 556.300781 436.789062 Z M 556.300781 436.789062 " fill-opacity="1" fill-rule="nonzero"/><path fill="#F0F0F0" d="M 547.109375 461.164062 C 547.191406 461.167969 547.261719 461.171875 547.34375 461.175781 C 548.316406 459.304688 549.308594 457.625 550.214844 455.898438 C 550.613281 455.167969 551.015625 454.425781 551.410156 453.675781 C 551.109375 453.84375 550.8125 454.042969 550.523438 454.296875 C 549.261719 455.367188 548.28125 457.402344 547.109375 461.164062 Z M 547.109375 461.164062 " fill-opacity="1" fill-rule="nonzero"/><path fill="#F0F0F0" d="M 512.851562 520.25 C 513.957031 519.074219 515 517.796875 515.980469 516.410156 C 515.980469 516.410156 515.925781 516.394531 515.847656 516.375 C 513.984375 517.773438 512.097656 519.289062 510.269531 520.90625 C 508.269531 522.566406 506.421875 524.398438 504.707031 526.289062 C 506.257812 525.417969 507.761719 524.441406 509.238281 523.351562 C 510.484375 522.410156 511.695312 521.378906 512.851562 520.25 Z M 512.851562 520.25 " fill-opacity="1" fill-rule="nonzero"/><path fill="#F0F0F0" d="M 523.835938 511 C 524.839844 510.585938 525.851562 510.03125 526.816406 509.359375 C 525.945312 509.789062 524.929688 510.355469 523.835938 511 Z M 523.835938 511 " fill-opacity="1" fill-rule="nonzero"/><path fill="#F0F0F0" d="M 519.035156 511.726562 C 516.929688 511.285156 515.972656 509.640625 517.128906 506.207031 C 517.128906 506.207031 519.5 506.144531 521.875 506.082031 C 524.273438 505.980469 526.671875 505.882812 526.671875 505.882812 C 526.671875 505.882812 526.648438 504.703125 526.613281 502.9375 C 526.597656 501.191406 526.46875 498.828125 526.285156 496.46875 C 525.957031 491.769531 525.519531 487.230469 525.519531 487.230469 C 525.617188 490.554688 524.4375 493.308594 522.820312 495.652344 C 521.230469 498.015625 518.953125 499.808594 517.160156 501.554688 C 513.566406 505.050781 511.109375 507.835938 515.957031 512.980469 C 515.957031 512.980469 514.085938 513.375 512.21875 513.769531 C 510.363281 514.140625 508.511719 514.511719 508.511719 514.511719 C 508.511719 514.511719 510.375 514.992188 512.234375 515.476562 C 513.828125 515.871094 515.40625 516.261719 515.851562 516.375 C 518.710938 514.226562 521.480469 512.386719 523.839844 510.996094 C 522.085938 511.722656 520.375 512.011719 519.035156 511.726562 Z M 519.035156 511.726562 " fill-opacity="1" fill-rule="nonzero"/><path fill="#F0F0F0" d="M 495.269531 542.035156 C 493.707031 543.574219 492.144531 545.113281 492.144531 545.113281 C 491.789062 545.34375 491.574219 545.503906 491.449219 545.609375 C 491.40625 545.65625 491.367188 545.710938 491.328125 545.761719 C 491.527344 545.972656 499.222656 541.738281 497.570312 539.742188 C 497.519531 539.800781 497.472656 539.851562 497.414062 539.914062 C 496.828125 540.492188 496.046875 541.261719 495.269531 542.035156 Z M 495.269531 542.035156 " fill-opacity="1" fill-rule="nonzero"/><path fill="#F0F0F0" d="M 539.949219 487.183594 C 538.328125 489.179688 537.28125 490.746094 536.65625 492.011719 C 536.003906 493.261719 535.75 494.183594 535.820312 494.925781 C 535.820312 494.933594 535.828125 494.941406 535.828125 494.953125 C 536.828125 493.210938 537.757812 491.527344 538.425781 490.152344 C 539.339844 488.371094 539.949219 487.183594 539.949219 487.183594 Z M 539.949219 487.183594 " fill-opacity="1" fill-rule="nonzero"/><path fill="#F0F0F0" d="M 538.574219 497.695312 C 537.253906 497.085938 535.964844 496.40625 535.828125 494.953125 C 535.519531 495.492188 535.203125 496.035156 534.886719 496.578125 C 533.546875 498.894531 532.210938 501.207031 531.207031 502.941406 C 530.128906 504.632812 529.414062 505.757812 529.414062 505.757812 C 529.414062 505.757812 531.351562 506.066406 533.289062 506.375 C 535.234375 506.65625 537.175781 506.941406 537.175781 506.941406 C 543.957031 499.945312 541.234375 498.914062 538.574219 497.695312 Z M 538.574219 497.695312 " fill-opacity="1" fill-rule="nonzero"/><path fill="#F0F0F0" d="M 76.039062 266.625 C 75.871094 265.648438 75.816406 264.40625 75.820312 263.066406 C 75.332031 263.988281 74.910156 264.941406 74.648438 265.976562 Z M 76.039062 266.625 " fill-opacity="1" fill-rule="nonzero"/><path fill="#F0F0F0" d="M 79.542969 268.234375 L 76.039062 266.625 C 76.464844 268.703125 77.382812 269.703125 79.542969 268.234375 Z M 79.542969 268.234375 " fill-opacity="1" fill-rule="nonzero"/><g clip-path="url(#110d6e4596)"><path fill="#F0F0F0" d="M 87.09375 252.398438 C 90.453125 249.820312 91.773438 247.5625 86.625 243.523438 C 86.625 243.523438 85.054688 246.277344 83.488281 249.035156 C 82.707031 250.421875 81.925781 251.804688 81.339844 252.84375 C 80.753906 253.878906 80.382812 254.585938 80.382812 254.582031 C 75.570312 252.105469 73.175781 250.851562 77.328125 243.917969 C 74.511719 244.679688 74.082031 252.515625 73.507812 256.664062 L 75.222656 254.179688 C 75.960938 256.441406 75.789062 260.011719 75.820312 263.066406 C 78.457031 258 83.664062 254.921875 87.09375 252.398438 Z M 87.09375 252.398438 " fill-opacity="1" fill-rule="nonzero"/></g><path fill="#F0F0F0" d="M 91.316406 240.664062 C 91.316406 240.664062 91.289062 236.929688 91.265625 233.195312 C 91.214844 229.402344 91.453125 225.660156 91.453125 225.660156 C 90.070312 227.710938 88.058594 231.445312 87.386719 234.667969 C 86.691406 237.890625 87.34375 240.542969 91.316406 240.664062 Z M 91.316406 240.664062 " fill-opacity="1" fill-rule="nonzero"/><path fill="#F0F0F0" d="M 105.648438 229.761719 C 107.023438 227.664062 108.46875 225.792969 108.425781 223.355469 C 104.980469 225.53125 105.0625 224.164062 106.066406 221.78125 C 107.085938 219.417969 108.996094 216.058594 108.988281 214.222656 C 96.996094 223.546875 108.617188 221.863281 105.648438 229.761719 Z M 105.648438 229.761719 " fill-opacity="1" fill-rule="nonzero"/><path fill="#F0F0F0" d="M 105.648438 229.761719 C 105.023438 230.734375 104.425781 231.777344 104.085938 232.960938 C 104.863281 231.722656 105.300781 230.707031 105.648438 229.761719 Z M 105.648438 229.761719 " fill-opacity="1" fill-rule="nonzero"/><path fill="#F0F0F0" d="M 155.210938 160.058594 L 155.707031 160.140625 C 155.609375 160 155.4375 159.980469 155.210938 160.058594 Z M 155.210938 160.058594 " fill-opacity="1" fill-rule="nonzero"/><g clip-path="url(#bca77d6a1d)"><path fill="#F0F0F0" d="M 591.699219 325.074219 C 590.59375 322.082031 589.335938 318.554688 588.484375 315.15625 C 587.648438 311.753906 587.484375 308.421875 588.972656 305.65625 L 583.6875 306.652344 C 583.660156 306.285156 583.621094 305.921875 583.589844 305.554688 C 583.136719 299.246094 582.84375 295.253906 582.882812 292.554688 C 582.832031 289.714844 583 288.316406 583.257812 287.046875 C 583.507812 285.78125 583.796875 284.65625 583.84375 282.363281 C 583.871094 281.214844 583.832031 279.769531 583.691406 277.867188 C 583.484375 275.984375 583.15625 273.644531 582.652344 270.675781 C 582.652344 270.675781 580.65625 269.519531 578.660156 268.363281 C 578.101562 268.046875 577.554688 267.738281 577.042969 267.449219 C 576.699219 266.15625 576.359375 264.863281 575.996094 263.578125 C 576.03125 263.546875 576.054688 263.515625 576.089844 263.480469 C 575.867188 262.839844 575.625 262.191406 575.394531 261.550781 C 571.875 249.5625 567.382812 237.992188 561.992188 226.9375 C 561.140625 224.136719 559.867188 221.292969 557.839844 218.621094 C 557.839844 218.621094 557.886719 218.796875 557.949219 219.046875 C 555.242188 214.027344 552.359375 209.113281 549.292969 204.335938 C 549.617188 204.0625 549.925781 203.734375 550.207031 203.277344 C 548.203125 200.320312 545.855469 197.742188 543.296875 195.472656 C 524.828125 169.527344 500.921875 147.71875 473.25 131.699219 C 473.257812 131.675781 473.28125 131.65625 473.289062 131.632812 C 473.273438 131.652344 473.25 131.671875 473.230469 131.691406 C 471.027344 130.414062 468.789062 129.179688 466.535156 127.976562 C 467.363281 127.054688 468.277344 126.109375 469.199219 125.15625 C 473.941406 120.269531 478.839844 115.027344 469.242188 110.949219 C 472.921875 115.441406 471.183594 119.394531 467.941406 121.710938 C 464.660156 124.050781 460.015625 124.644531 457.003906 122.472656 C 457.050781 122.664062 457.058594 122.917969 457.042969 123.199219 C 455.722656 122.574219 454.398438 121.957031 453.0625 121.355469 C 456.238281 120.285156 456.820312 118.265625 455.667969 116.203125 C 454.4375 113.988281 451.273438 111.703125 447.546875 110.972656 C 449.070312 111.683594 450.320312 112.527344 451.269531 113.46875 C 452.207031 114.445312 452.863281 115.480469 453.242188 116.484375 C 453.925781 118.292969 453.675781 119.988281 452.664062 121.183594 C 450.65625 120.285156 448.636719 119.421875 446.597656 118.585938 C 446.164062 118.265625 445.730469 117.957031 445.292969 117.636719 C 445.9375 117.375 446.652344 116.902344 447.472656 116.121094 C 449.703125 112.394531 445.914062 108.25 440.496094 104.277344 C 437.773438 102.359375 434.691406 100.394531 431.824219 98.492188 C 428.921875 96.695312 426.261719 94.878906 424.457031 93.011719 C 420.578125 92.492188 418.453125 93.167969 416.945312 94.246094 C 415.425781 95.371094 414.460938 97.089844 412.8125 99.222656 C 412.417969 96.6875 410.429688 94.527344 408.34375 92.5625 C 406.261719 90.589844 404.121094 88.613281 403.550781 86.0625 C 399.261719 86.949219 395.683594 86.984375 392.40625 86.449219 C 389.136719 85.894531 386.171875 84.746094 383.15625 83.847656 C 380.148438 82.910156 377.109375 81.929688 373.796875 81.679688 C 372.78125 81.632812 371.730469 81.671875 370.660156 81.761719 C 370.660156 81.785156 370.59375 81.792969 370.46875 81.78125 C 368.097656 82 365.59375 82.5625 362.894531 83.730469 C 362.191406 82.792969 361.9375 82.101562 361.984375 81.597656 C 361.304688 81.621094 360.851562 81.636719 360.851562 81.636719 L 361.777344 82.683594 C 358.808594 84.425781 355.277344 85.382812 351.488281 85.769531 C 350.164062 85.910156 348.800781 86.003906 347.421875 86.070312 C 348.628906 86.410156 349.816406 86.796875 350.96875 87.273438 C 351.769531 87.617188 352.527344 88.003906 353.300781 88.371094 C 351.132812 88.566406 348.402344 88.921875 345.671875 89.238281 C 341.792969 89.648438 337.960938 90.246094 335.761719 90.613281 C 335.402344 89.996094 334.933594 89.195312 334.457031 88.390625 C 333.613281 86.988281 332.773438 85.59375 332.535156 85.199219 C 328.992188 84.695312 325.734375 84.039062 323.082031 83.355469 C 324.832031 84.082031 326.246094 85.085938 326.992188 86.234375 C 327.539062 87.070312 327.707031 87.914062 327.425781 88.734375 C 326.832031 88.769531 326.238281 88.808594 325.644531 88.835938 C 324.382812 88.933594 323.121094 88.96875 321.859375 89.035156 C 321.578125 88.765625 321.289062 88.492188 320.996094 88.214844 C 319.230469 86.589844 317.464844 84.964844 317.464844 84.964844 C 317.464844 84.964844 316.648438 85.816406 315.421875 87.09375 C 314.789062 87.742188 314.054688 88.53125 313.28125 89.390625 C 308.960938 89.546875 304.6875 89.828125 300.511719 89.988281 C 295.105469 90.378906 289.882812 90.925781 285.050781 91.761719 C 281.035156 92.59375 277.300781 93.582031 273.960938 94.910156 C 275.410156 93.609375 277.410156 92.769531 279.398438 92.113281 C 282.777344 90.949219 285.945312 89.9375 286.027344 86.800781 C 284.734375 84.382812 277.929688 84.910156 275.378906 83.984375 C 275.945312 89.507812 272.570312 91.089844 269.960938 92.519531 C 267.328125 93.964844 265.632812 95.257812 269.773438 100.292969 C 269.496094 101.15625 269.527344 101.867188 270.160156 102.292969 C 268.542969 102.773438 266.992188 103.191406 265.46875 103.667969 C 264.667969 103.902344 263.863281 104.140625 263.050781 104.394531 C 263.382812 104.488281 263.730469 104.558594 264.117188 104.582031 C 265.644531 104.707031 267.601562 104.0625 270.648438 102.519531 C 271.6875 102.847656 273.589844 102.761719 276.902344 102.003906 C 272.992188 105.863281 267.90625 107.1875 262.351562 107.265625 C 260.242188 107.398438 258.066406 107.339844 255.890625 107.246094 C 256.359375 106.992188 256.832031 106.726562 257.285156 106.507812 C 259.316406 105.609375 261.207031 104.964844 263.050781 104.394531 C 261.980469 104.089844 261.144531 103.464844 260.292969 102.828125 C 258.074219 101.183594 255.554688 99.292969 248.128906 103.625 C 248.128906 103.625 248.039062 105.140625 247.933594 106.941406 C 247.230469 106.929688 246.511719 106.894531 245.835938 106.914062 C 245.835938 106.914062 246.191406 106.3125 246.730469 105.410156 C 247.265625 104.492188 248 103.3125 248.75 102.152344 C 250.277344 99.808594 251.804688 97.464844 251.804688 97.464844 C 238.339844 102.085938 222.886719 105.207031 208.242188 110.492188 C 193.644531 115.683594 179.90625 122.867188 171.175781 133.160156 L 178.171875 135.207031 C 177.007812 136.1875 175.832031 137.136719 174.640625 138.050781 C 173.464844 138.992188 172.304688 139.941406 171.121094 140.839844 C 168.761719 142.648438 166.359375 144.34375 163.949219 145.957031 C 159.265625 149.351562 154.511719 152.382812 150.195312 155.441406 C 145.949219 158.582031 141.847656 161.429688 138.652344 164.527344 C 135.4375 167.597656 132.859375 170.625 131.328125 173.730469 C 140.722656 170.878906 139.453125 174.070312 135.828125 178.480469 C 134.96875 179.625 133.953125 180.847656 132.910156 182.089844 C 132.554688 182.253906 132.191406 182.386719 131.816406 182.5 L 132.289062 182.824219 C 129.285156 186.355469 126.207031 189.898438 125.832031 191.894531 C 127.539062 190.53125 129.265625 189.015625 130.988281 187.402344 C 132.074219 186.359375 133.128906 185.25 134.171875 184.109375 L 136.269531 185.542969 C 131.691406 190.824219 128.90625 194.078125 126.855469 196.074219 C 124.882812 198.117188 123.773438 198.984375 122.695312 199.699219 C 121.625 200.421875 120.625 201.007812 118.964844 202.597656 C 118.136719 203.390625 117.140625 204.4375 115.894531 205.882812 C 114.710938 207.363281 113.285156 209.25 111.539062 211.703125 C 111.539062 211.703125 112.132812 213.933594 112.730469 216.164062 C 113.035156 217.261719 113.339844 218.363281 113.566406 219.1875 C 113.824219 220.015625 113.992188 220.566406 113.992188 220.566406 C 114.480469 221.335938 115.042969 215.960938 116.457031 210.753906 C 117.777344 205.511719 120.386719 200.734375 123.828125 202.726562 C 123.5625 204.664062 123.175781 206.621094 122.703125 208.597656 C 122.265625 210.589844 121.808594 212.636719 121.257812 214.683594 C 120.71875 216.734375 120.125 218.800781 119.515625 220.882812 C 118.917969 222.972656 118.417969 225.121094 117.871094 227.25 C 117.335938 229.390625 116.816406 231.535156 116.347656 233.675781 C 115.914062 235.828125 115.617188 238.011719 115.351562 240.164062 C 115.101562 242.320312 114.933594 244.460938 114.882812 246.570312 C 114.851562 248.6875 115.042969 250.804688 115.324219 252.859375 C 115.324219 252.859375 112.773438 249.070312 110.371094 245.140625 C 108.957031 242.792969 107.578125 240.402344 106.695312 238.863281 C 107.808594 241.914062 105.253906 244.605469 102.078125 248.242188 C 100.167969 250.371094 97.96875 252.800781 96.066406 255.710938 C 94.285156 258.644531 92.820312 262.070312 92.273438 266.058594 C 92.273438 266.058594 94.140625 262.964844 96.007812 259.871094 C 96.953125 258.34375 97.847656 256.8125 98.597656 255.691406 C 99.351562 254.574219 99.851562 253.828125 99.851562 253.828125 C 101.96875 257.351562 102.726562 261.402344 102.453125 265.773438 C 102.125 270.136719 101.214844 274.925781 100.09375 279.910156 C 99.804688 281.15625 99.519531 282.414062 99.230469 283.675781 C 98.996094 284.949219 98.761719 286.230469 98.527344 287.515625 C 98.082031 290.085938 97.683594 292.667969 97.429688 295.222656 C 96.972656 300.335938 97.34375 305.359375 98.816406 309.8125 C 99.222656 305.058594 99.667969 300.308594 103.5 299.882812 C 103.832031 300.304688 104.089844 300.804688 104.300781 301.339844 C 104.289062 303.125 104.402344 303.464844 104.8125 303.238281 C 105.109375 305.140625 104.976562 307.40625 104.566406 309.78125 C 103.941406 313.804688 102.765625 318.148438 101.542969 321.386719 C 101.042969 321.292969 100.578125 321.136719 100.128906 320.953125 C 99.621094 317.761719 99.84375 314.625 102.039062 310.292969 C 102.039062 310.292969 100.125 310.605469 98.214844 310.917969 C 96.300781 311.253906 94.386719 311.589844 94.386719 311.589844 C 94.433594 312.324219 94.507812 313.046875 94.578125 313.769531 C 94.578125 313.761719 94.574219 313.753906 94.570312 313.746094 C 93.105469 309.710938 92.890625 304.609375 92.542969 299.707031 C 92.109375 289.925781 92.539062 280.917969 86.828125 282.304688 C 85.828125 287.484375 85.875 292.628906 86.710938 297.535156 C 87.640625 302.457031 89.058594 307.121094 90.609375 311.445312 C 92.246094 315.773438 93.84375 319.765625 94.808594 323.429688 C 95.855469 327.097656 96.375 330.449219 95.589844 333.570312 C 95.589844 333.570312 93.542969 331.097656 91.496094 328.625 C 90.472656 327.359375 89.453125 326.09375 88.6875 325.140625 C 87.910156 324.183594 87.445312 323.535156 87.445312 323.535156 C 87.445312 323.535156 87.574219 324.164062 87.847656 325.101562 C 88.105469 326.039062 88.453125 327.285156 88.800781 328.53125 C 89.5 331.003906 90.203125 333.476562 90.203125 333.476562 L 90.707031 330.542969 C 93.988281 332.582031 93.8125 335.695312 93.304688 339.347656 C 92.839844 342.988281 91.886719 347.195312 93.222656 351.03125 C 93.222656 351.03125 91.121094 349.898438 89.019531 348.765625 C 86.917969 347.59375 84.820312 346.421875 84.820312 346.421875 C 84.820312 346.421875 84.878906 347.359375 84.96875 348.769531 C 85.082031 350.175781 85.128906 352.0625 85.363281 353.933594 C 85.78125 357.683594 86.199219 361.433594 86.199219 361.433594 L 88.121094 359.261719 C 94.621094 382.742188 98.480469 402.644531 101.613281 425.046875 C 101.613281 425.046875 101.519531 424.214844 101.371094 422.96875 C 101.242188 421.714844 101.003906 420.082031 100.90625 418.398438 C 100.679688 415.070312 100.445312 411.746094 100.445312 411.746094 C 102.335938 412.265625 104.859375 418.707031 106.0625 424.597656 C 108.046875 422.863281 107.09375 418.527344 106.632812 414.441406 C 106.179688 411.0625 105.8125 408 106.976562 406.992188 C 108.015625 412.890625 109.296875 418.753906 110.816406 424.566406 C 110.898438 425.9375 110.949219 427.285156 110.976562 428.640625 C 111.042969 431.753906 111.242188 434.84375 111.617188 438.519531 C 111.816406 440.351562 112.074219 442.320312 112.46875 444.480469 C 112.925781 446.605469 113.503906 448.925781 114.253906 451.492188 C 115.644531 451.65625 116.695312 449.359375 117.984375 447.066406 C 119.445312 450.925781 121.027344 454.742188 122.710938 458.53125 C 121.433594 459.425781 119.445312 459.355469 115.976562 457.359375 C 121.808594 462.613281 122.007812 465.675781 122.386719 468.328125 C 122.765625 470.933594 123.464844 473.050781 130.054688 475.796875 C 128.925781 474.835938 128.097656 472.785156 127.289062 470.742188 C 127.464844 470.160156 127.691406 469.765625 127.941406 469.46875 C 130.699219 474.855469 133.683594 480.152344 136.90625 485.339844 C 136.984375 489.757812 137.855469 494.1875 141.519531 499.949219 C 141.519531 499.949219 142.65625 500.929688 144.363281 502.398438 C 146.074219 503.855469 148.46875 505.683594 150.808594 507.539062 C 152.59375 508.980469 154.410156 510.367188 155.976562 511.527344 C 157.1875 512.960938 158.421875 514.386719 159.679688 515.796875 C 159.074219 516.289062 158.269531 516.425781 158.269531 516.425781 C 160.472656 518.199219 162.589844 520.078125 164.683594 521.984375 C 166.835938 523.832031 168.933594 525.734375 170.996094 527.664062 C 171.332031 527.992188 171.683594 528.296875 172.023438 528.617188 C 172.515625 529.09375 173.011719 529.566406 173.511719 530.035156 C 173.664062 531.097656 174.324219 532.132812 175.839844 532.96875 C 176.453125 533.28125 177 533.523438 177.492188 533.703125 C 177.546875 533.753906 177.609375 533.804688 177.664062 533.859375 C 179.558594 535.566406 181.445312 537.253906 183.273438 538.941406 C 187.371094 542.492188 191.453125 545.796875 195.460938 548.617188 C 196.917969 549.578125 198.355469 550.457031 199.78125 551.292969 C 205.566406 555.289062 211.496094 558.984375 217.550781 562.367188 C 217.550781 562.414062 217.558594 562.453125 217.554688 562.503906 C 218.058594 562.746094 218.589844 562.964844 219.097656 563.207031 C 221.667969 564.613281 224.253906 565.976562 226.867188 567.277344 C 224.761719 567.71875 223 568.089844 223 568.089844 C 235.785156 574.351562 248.921875 583.0625 263.011719 589.679688 C 277.003906 596.328125 291.796875 600.964844 305.253906 599.859375 L 301.753906 593.464844 C 303.273438 593.589844 304.773438 593.753906 306.261719 593.949219 C 307.757812 594.109375 309.25 594.261719 310.722656 594.464844 C 313.671875 594.855469 316.570312 595.355469 319.414062 595.914062 C 325.125 596.828125 330.632812 598.046875 335.847656 598.933594 C 341.070312 599.710938 345.988281 600.601562 350.433594 600.667969 C 354.875 600.769531 358.84375 600.453125 362.121094 599.339844 C 353.460938 594.714844 356.617188 593.355469 362.300781 592.796875 C 368.011719 591.984375 376.472656 592.007812 378.855469 590.382812 C 376.683594 590.136719 374.390625 589.988281 372.03125 589.914062 C 369.671875 589.863281 367.246094 589.949219 364.8125 590.125 C 359.949219 590.511719 355.046875 590.84375 350.648438 591.417969 C 343.035156 592.175781 336.929688 592.796875 335.5625 592.117188 L 336.089844 592.859375 C 336.089844 592.859375 334.097656 593.070312 331.101562 593.179688 C 328.105469 593.316406 324.085938 593.527344 320.039062 593.644531 C 315.988281 593.621094 311.9375 593.601562 308.898438 593.582031 C 307.367188 593.578125 306.09375 593.546875 305.207031 593.480469 C 304.316406 593.433594 303.808594 593.40625 303.808594 593.40625 L 304.832031 589.5 C 331.132812 591.992188 357.792969 589.808594 383.46875 582.964844 C 383.476562 582.988281 383.480469 583.015625 383.488281 583.042969 C 383.488281 583.015625 383.488281 582.988281 383.488281 582.957031 C 385.949219 582.300781 388.402344 581.59375 390.847656 580.851562 C 390.917969 582.085938 390.9375 583.402344 390.960938 584.730469 C 391.0625 591.539062 391.304688 598.710938 400.976562 594.804688 C 395.199219 594.230469 393.628906 590.207031 394.285156 586.277344 C 394.953125 582.300781 397.816406 578.597656 401.480469 578 C 401.308594 577.898438 401.128906 577.722656 400.9375 577.515625 C 402.3125 577.023438 403.6875 576.523438 405.058594 576.003906 C 403.570312 579.007812 404.585938 580.84375 406.859375 581.488281 C 408.753906 582.03125 411.503906 581.761719 414.121094 580.628906 C 417.175781 581.460938 416.1875 582.3125 413.960938 583.21875 C 411.570312 584.167969 407.84375 585.1875 406.546875 586.492188 C 419.546875 588.121094 414.347656 583.117188 417.597656 579.476562 C 419.917969 579.867188 422.84375 579.6875 426.019531 579.199219 C 429.304688 578.625 432.871094 577.835938 436.25 577.152344 C 439.015625 576.503906 441.652344 576.003906 443.964844 575.871094 C 443.074219 576.839844 442.722656 578.585938 443.085938 581.585938 C 443.085938 581.585938 446.140625 580.746094 449.203125 579.90625 C 450.734375 579.476562 452.265625 579.050781 453.414062 578.730469 C 454.5625 578.410156 455.320312 578.175781 455.320312 578.179688 C 456.972656 583.332031 457.777344 585.910156 449.9375 587.878906 C 452.46875 589.332031 458.3125 584.097656 461.648438 581.566406 L 458.6875 582.109375 C 459.757812 579.992188 462.410156 577.585938 464.542969 575.40625 C 459.097656 577.125 453.242188 575.621094 449.03125 574.980469 C 448.101562 574.855469 447.253906 574.800781 446.503906 574.847656 C 448.703125 572.894531 449.503906 571.210938 449.769531 569.636719 C 450.050781 567.765625 449.515625 565.867188 449.171875 563.195312 C 451.246094 564.707031 454.179688 564.828125 457.042969 564.742188 C 459.910156 564.664062 462.820312 564.550781 465.027344 565.953125 C 467.433594 562.289062 469.9375 559.738281 472.636719 557.800781 C 475.339844 555.878906 478.25 554.597656 481.015625 553.09375 C 483.808594 551.632812 486.648438 550.175781 489.167969 548.011719 C 489.917969 547.328125 490.632812 546.558594 491.328125 545.738281 C 491.3125 545.71875 491.351562 545.671875 491.449219 545.585938 C 492.972656 543.757812 494.34375 541.589844 495.421875 538.855469 C 496.585938 539.023438 497.25 539.332031 497.574219 539.722656 C 498.039062 539.222656 498.351562 538.894531 498.351562 538.894531 L 496.953125 538.808594 C 497.820312 535.476562 499.640625 532.304688 502.046875 529.347656 C 502.882812 528.3125 503.78125 527.28125 504.707031 526.265625 C 503.613281 526.878906 502.5 527.441406 501.351562 527.921875 C 495.710938 530.175781 490.058594 531.480469 484.46875 532.101562 C 481.078125 532.535156 477.886719 532.875 474.898438 533.261719 C 477.550781 530.867188 480.152344 528.390625 482.710938 525.847656 C 484.25 526.925781 485.738281 527.964844 485.738281 527.964844 C 488.152344 525.210938 490.210938 522.351562 492.066406 519.417969 C 493.847656 516.5625 495.335938 513.484375 496.84375 510.425781 C 501.761719 504.535156 506.328125 498.449219 510.542969 492.195312 L 511.523438 492.886719 C 511.417969 492.152344 512.859375 490.261719 515.191406 487.296875 C 516.375 485.832031 517.816406 484.132812 519.472656 482.25 C 521.0625 480.308594 522.832031 478.144531 524.75 475.800781 C 524.808594 475.730469 524.871094 475.648438 524.929688 475.578125 C 541.359375 457.898438 554.953125 437.546875 564.972656 415.234375 C 565.042969 415.1875 565.113281 415.140625 565.1875 415.089844 C 566.339844 414.289062 567.464844 413.4375 568.195312 413.617188 C 568.910156 413.792969 569.261719 415.019531 568.472656 418.28125 C 568.570312 420.167969 569.648438 415.332031 569.765625 409.761719 C 569.871094 407.796875 569.847656 405.753906 569.683594 403.894531 C 570.335938 402.199219 570.960938 400.496094 571.574219 398.78125 C 572.675781 401.128906 574.9375 402.441406 579.222656 402.125 C 579.476562 395.859375 579.195312 390.703125 577.503906 388.746094 L 579.019531 389.886719 C 579.019531 389.886719 578.128906 386.917969 576.542969 382.9375 C 577.523438 379.355469 578.414062 375.734375 579.210938 372.082031 C 581.074219 375.382812 583.28125 377.371094 586.503906 375.683594 C 586.503906 375.683594 585.132812 372.785156 583.753906 369.886719 C 583.089844 368.453125 582.332031 367.035156 581.765625 365.976562 C 581.199219 364.921875 580.824219 364.21875 580.824219 364.21875 C 587.335938 368.164062 585.5625 353.097656 590.453125 355.910156 C 590.453125 355.910156 590.378906 355.417969 590.191406 354.554688 C 590.011719 353.695312 589.753906 352.46875 589.445312 350.996094 C 588.773438 348.058594 588.09375 344.144531 587.023438 340.289062 C 586.046875 336.613281 585.128906 332.988281 584.308594 330.1875 C 584.355469 328.320312 584.378906 326.445312 584.382812 324.566406 L 588.96875 323.320312 C 588.96875 323.320312 588.457031 325.308594 587.949219 327.292969 C 587.6875 328.277344 587.429688 329.261719 587.234375 330 C 587.019531 330.738281 586.875 331.226562 586.875 331.226562 C 590.726562 333.023438 592.453125 333.03125 592.976562 331.773438 C 593.53125 330.539062 592.792969 328.0625 591.699219 325.074219 Z M 139.390625 231.53125 C 140.105469 229.417969 140.808594 227.378906 141.3125 225.320312 C 141.433594 224.859375 141.527344 224.40625 141.636719 223.949219 C 143.429688 222.75 145.074219 223.292969 146.441406 227.460938 C 146.441406 227.460938 143.828125 229.863281 141.214844 232.265625 C 139.84375 233.652344 138.484375 235.019531 137.527344 235.992188 C 138.242188 234.5 138.882812 233.015625 139.390625 231.53125 Z M 143.007812 217.804688 C 143.351562 216.351562 143.691406 214.898438 144.050781 213.507812 C 144.332031 212.429688 144.632812 211.386719 144.964844 210.367188 C 145.5 213.835938 144.625 216.101562 143.007812 217.804688 Z M 155.230469 220.863281 C 156.238281 220.757812 157.398438 220.941406 158.773438 221.511719 C 157.496094 222.964844 156.242188 224.429688 155.011719 225.90625 C 155.019531 225 155.042969 224.078125 155.097656 223.15625 C 155.144531 222.386719 155.1875 221.617188 155.230469 220.863281 Z M 124.292969 271.101562 C 124.652344 268.4375 124.609375 265.449219 124.445312 262.355469 C 124.351562 258.433594 124 254.339844 123.847656 250.652344 C 123.84375 250.191406 123.855469 249.761719 123.855469 249.316406 C 124.394531 248.105469 124.984375 247.054688 125.605469 246.296875 C 125.019531 246.480469 124.464844 246.742188 123.921875 247.035156 C 124.03125 244.910156 124.273438 243.035156 124.765625 241.640625 C 125.160156 242.855469 126.910156 240.386719 129.046875 237.660156 C 131.152344 238.402344 133.316406 235.367188 135.496094 231.867188 C 136.40625 232.015625 136.894531 233.421875 136.675781 236.847656 C 136.382812 237.144531 136.207031 237.316406 136.207031 237.316406 C 136.359375 237.316406 136.496094 237.300781 136.644531 237.292969 C 136.628906 237.488281 136.621094 237.664062 136.597656 237.871094 C 136.707031 237.675781 136.785156 237.476562 136.890625 237.277344 C 140.550781 237.070312 142.910156 235.765625 144.726562 234.011719 C 146.671875 232.160156 147.882812 229.703125 149.019531 227.378906 C 150.03125 225.304688 151.042969 223.382812 152.40625 222.160156 C 152.355469 222.3125 152.304688 222.445312 152.25 222.597656 C 151.640625 224.398438 151.097656 226.367188 150.503906 228.300781 C 149.980469 230.0625 149.460938 231.808594 148.960938 233.480469 C 148.039062 234.691406 147.121094 235.90625 146.222656 237.132812 C 145.960938 237.21875 145.734375 237.273438 145.558594 237.277344 C 145.542969 237.542969 145.582031 237.757812 145.632812 237.957031 C 137.769531 248.816406 131.011719 260.226562 125.355469 272.035156 C 124.964844 271.757812 124.621094 271.441406 124.292969 271.101562 Z M 579.847656 274.820312 C 582.441406 279.15625 583.945312 284 581 285.449219 C 580.210938 280.972656 579.28125 276.542969 578.226562 272.164062 C 578.773438 273.015625 579.320312 273.902344 579.847656 274.820312 Z M 445.132812 117.984375 C 444.992188 117.929688 444.851562 117.871094 444.710938 117.8125 C 444.773438 117.800781 444.832031 117.796875 444.894531 117.777344 C 444.976562 117.847656 445.054688 117.917969 445.132812 117.984375 Z M 439.605469 113.398438 C 439.335938 113.195312 439.066406 113 438.796875 112.792969 C 438.796875 112.792969 439.132812 113.058594 439.660156 113.480469 C 439.835938 113.734375 440.011719 113.996094 440.1875 114.265625 C 440.753906 115.144531 441.316406 116.042969 441.953125 116.730469 C 439.339844 115.722656 436.710938 114.761719 434.054688 113.851562 C 436.578125 110.210938 438.171875 111.367188 439.605469 113.398438 Z M 334.964844 90.746094 C 334.289062 90.863281 333.894531 90.933594 333.894531 90.933594 C 333.609375 90.578125 333.535156 90.183594 333.550781 89.804688 C 334.046875 90.136719 334.535156 90.460938 334.964844 90.746094 Z M 330.058594 87.527344 C 330.058594 87.527344 330.664062 87.917969 331.496094 88.460938 C 330.992188 88.503906 330.492188 88.554688 329.992188 88.589844 C 330.023438 88.25 330.046875 87.902344 330.058594 87.527344 Z M 210.796875 117.878906 C 210.300781 118.285156 209.820312 118.691406 209.335938 119.097656 C 209.222656 118.980469 209.140625 118.875 209.011719 118.753906 C 209.621094 118.398438 210.214844 118.121094 210.796875 117.878906 Z M 196.640625 128.71875 C 198.074219 128.273438 199.496094 127.890625 200.867188 127.523438 C 199.597656 129.175781 198.785156 130.652344 198.695312 131.84375 L 198.429688 129.96875 C 198.429688 129.96875 196.871094 132.851562 195.113281 136.980469 C 193.332031 141.078125 191.648438 146.695312 190.890625 151.742188 C 192.0625 148.453125 194.414062 145.398438 197.046875 142.574219 C 199.792969 139.859375 202.808594 137.371094 205.242188 134.984375 C 209.101562 131.460938 211.621094 128.117188 209.632812 124.351562 C 211.148438 123.25 211.523438 121.871094 210.152344 120.027344 C 212.449219 119.316406 214.265625 118.339844 215.851562 116.996094 C 218.378906 117.207031 220.429688 118.429688 221.78125 120.003906 C 220.902344 120.734375 219.960938 121.5625 219.027344 122.457031 C 214.890625 126.164062 211.015625 131.066406 211.9375 133.074219 C 213.824219 132.703125 215.578125 129.496094 217.832031 127.289062 C 220.042969 125.03125 222.511719 123.503906 225.242188 126.207031 C 231.222656 122.839844 228.886719 122.476562 226.128906 121.941406 C 226.332031 121.804688 226.511719 121.683594 226.734375 121.539062 C 228.699219 120.289062 231.324219 118.621094 233.945312 116.957031 C 236.570312 115.246094 239.285156 113.703125 241.335938 112.554688 C 243.386719 111.394531 244.753906 110.621094 244.753906 110.621094 C 248.339844 112.910156 245.824219 122.132812 243.042969 122.425781 C 240.789062 123.078125 238.375 124.410156 235.851562 125.894531 C 233.328125 127.394531 230.652344 128.941406 227.980469 130.429688 C 222.644531 133.441406 217.035156 135.429688 211.195312 133.851562 C 208.761719 137.695312 211.367188 138.84375 212.71875 140.210938 C 214.109375 141.625 214.191406 143.042969 207.402344 147.730469 C 197.621094 149.257812 188.429688 153.652344 180.0625 159.109375 C 180.367188 155.972656 182.195312 151.820312 183.765625 147.765625 C 186.167969 141.890625 188.160156 136.304688 183.089844 134.71875 C 183.089844 134.71875 182.015625 137.742188 180.9375 140.765625 C 180.726562 141.34375 180.527344 141.925781 180.34375 142.496094 C 177.808594 135.351562 187.5 131.246094 196.640625 128.71875 Z M 173.027344 140.171875 C 174.113281 139.089844 175.039062 138.210938 175.710938 137.632812 C 176.371094 137.039062 176.75 136.699219 176.75 136.699219 L 180.273438 142.707031 C 180.011719 143.519531 179.773438 144.289062 179.578125 144.9375 C 179.230469 146.082031 179.003906 146.84375 179.003906 146.84375 C 177.273438 139.796875 168.675781 150.238281 166.59375 146.535156 C 168.960938 144.195312 171.242188 141.933594 173.027344 140.171875 Z M 154.3125 159.902344 C 154.3125 159.902344 155.574219 158.347656 157.613281 156.152344 C 159.488281 154.101562 161.941406 151.378906 164.5 148.652344 C 164.207031 149.101562 163.902344 149.570312 163.558594 150.097656 C 161.953125 152.648438 159.664062 155.898438 157.699219 159.378906 C 155.695312 162.832031 153.664062 166.230469 152.25 168.839844 C 150.878906 171.476562 149.964844 173.234375 149.964844 173.234375 L 145.488281 170.671875 C 146.238281 169.753906 146.964844 168.867188 147.660156 168.027344 C 147.726562 167.988281 147.789062 167.949219 147.855469 167.910156 C 148.734375 167.398438 149.613281 166.886719 150.273438 166.5 C 150.949219 166.132812 151.398438 165.890625 151.398438 165.890625 C 151.183594 165.300781 150.976562 164.792969 150.773438 164.320312 C 152.839844 161.925781 154.40625 160.328125 155.21875 160.054688 Z M 111.292969 280.53125 C 115.3125 268.308594 114.273438 284.929688 119.007812 280.363281 C 120.125 279.789062 120.992188 279.03125 121.695312 278.136719 C 121.753906 278.691406 121.785156 279.261719 121.777344 279.855469 C 120.09375 283.753906 118.535156 287.695312 117.085938 291.664062 C 115.589844 292.324219 114.269531 291.785156 113.246094 290.355469 C 112.539062 289.363281 111.976562 287.957031 111.597656 286.265625 C 111.246094 284.582031 111.175781 282.625 111.292969 280.53125 Z M 265.203125 582.085938 C 266.238281 582.378906 267.273438 582.675781 268.316406 582.953125 C 268.316406 583.078125 268.300781 583.171875 268.304688 583.300781 C 267.125 582.992188 266.101562 582.574219 265.203125 582.085938 Z M 288.625 587.378906 C 293.472656 588.203125 298.34375 588.847656 303.226562 589.347656 C 299.820312 591.648438 294.210938 590.0625 288.625 587.378906 Z M 413.761719 580.144531 C 413.121094 580.253906 412.492188 580.332031 411.898438 580.335938 C 410.546875 580.308594 409.351562 580.039062 408.371094 579.597656 C 406.605469 578.800781 405.585938 577.425781 405.457031 575.867188 C 408.140625 574.839844 410.8125 573.761719 413.460938 572.628906 C 413.019531 573.296875 412.742188 574.292969 412.707031 575.777344 C 413.101562 577.351562 414.136719 578.375 415.625 578.980469 C 414.953125 579.261719 414.328125 579.640625 413.761719 580.144531 Z M 419.171875 571.933594 C 418.148438 571.714844 417.113281 571.476562 416.175781 571.445312 C 418.734375 570.308594 421.277344 569.128906 423.800781 567.894531 C 424.699219 572.847656 422.058594 572.570312 419.171875 571.933594 Z M 419.171875 571.933594 " fill-opacity="1" fill-rule="nonzero"/></g><path fill="#F0F0F0" d="M 383.488281 583.058594 C 383.488281 584.023438 383.488281 584.679688 383.488281 584.679688 C 383.683594 584.070312 383.648438 583.539062 383.488281 583.058594 Z M 383.488281 583.058594 " fill-opacity="1" fill-rule="nonzero"/></svg>