<svg xmlns="http://www.w3.org/2000/svg" xmlns:xlink="http://www.w3.org/1999/xlink" width="1024" zoomAndPan="magnify" viewBox="0 0 768 767.999994" height="1024" preserveAspectRatio="xMidYMid meet" version="1.0"><defs><clipPath id="bd87ab5024"><path d="M 1.273438 16 L 767 16 L 767 751 L 1.273438 751 Z M 1.273438 16 " clip-rule="nonzero"/></clipPath></defs><g clip-path="url(#bd87ab5024)"><path fill="#000000" d="M 763.289062 730.332031 L 571.480469 538.546875 C 616.085938 483.441406 642.851562 413.335938 642.851562 337.085938 C 642.851562 160.222656 498.945312 16.335938 322.0625 16.335938 C 145.179688 16.335938 1.273438 160.222656 1.273438 337.085938 C 1.273438 513.945312 145.179688 657.832031 322.0625 657.832031 C 414.304688 657.832031 497.558594 618.691406 556.132812 556.164062 L 746.808594 746.8125 C 751.328125 751.335938 758.769531 751.335938 763.289062 746.8125 C 767.808594 742.292969 767.808594 734.855469 763.289062 730.332031 Z M 322.0625 634.527344 C 158.03125 634.527344 24.582031 501.097656 24.582031 337.085938 C 24.582031 173.074219 158.03125 39.640625 322.0625 39.640625 C 486.09375 39.640625 619.542969 173.074219 619.542969 337.085938 C 619.542969 501.097656 486.09375 634.527344 322.0625 634.527344 Z M 322.0625 634.527344 " fill-opacity="1" fill-rule="nonzero"/></g></svg>