<svg xmlns="http://www.w3.org/2000/svg" xmlns:xlink="http://www.w3.org/1999/xlink" width="1024" zoomAndPan="magnify" viewBox="0 0 768 767.999994" height="1024" preserveAspectRatio="xMidYMid meet" version="1.0"><defs><clipPath id="bd384419f2"><path d="M 563 54.480469 L 743.609375 54.480469 L 743.609375 355 L 563 355 Z M 563 54.480469 " clip-rule="nonzero"/></clipPath><clipPath id="46423e557d"><path d="M 563 414 L 743.609375 414 L 743.609375 713.730469 L 563 713.730469 Z M 563 414 " clip-rule="nonzero"/></clipPath><clipPath id="df580518ae"><path d="M 24.359375 174 L 322 174 L 322 352 L 24.359375 352 Z M 24.359375 174 " clip-rule="nonzero"/></clipPath><clipPath id="d6d832851a"><path d="M 24.359375 174 L 594 174 L 594 594 L 24.359375 594 Z M 24.359375 174 " clip-rule="nonzero"/></clipPath></defs><g clip-path="url(#bd384419f2)"><path fill="#ffffff" d="M 563.71875 354.140625 L 563.71875 54.480469 L 743.449219 204.308594 Z M 563.71875 354.140625 " fill-opacity="1" fill-rule="nonzero"/></g><g clip-path="url(#46423e557d)"><path fill="#ffffff" d="M 563.71875 713.730469 L 563.71875 414.070312 L 743.449219 563.902344 Z M 563.71875 713.730469 " fill-opacity="1" fill-rule="nonzero"/></g><g clip-path="url(#df580518ae)"><path fill="#ffffff" d="M 282.136719 351.140625 C 294.117188 336.160156 309.097656 321.175781 321.078125 306.195312 C 249.1875 234.277344 159.320312 174.34375 24.519531 174.34375 L 24.519531 234.277344 C 141.347656 234.277344 216.234375 285.21875 282.136719 351.140625 Z M 282.136719 351.140625 " fill-opacity="1" fill-rule="nonzero"/></g><path fill="#ffffff" d="M 419.929688 420.0625 C 407.949219 435.046875 392.972656 450.03125 380.988281 465.011719 C 440.898438 533.933594 503.804688 593.867188 593.671875 593.867188 L 593.671875 533.933594 C 524.773438 533.933594 473.851562 482.992188 419.929688 420.0625 Z M 419.929688 420.0625 " fill-opacity="1" fill-rule="nonzero"/><g clip-path="url(#d6d832851a)"><path fill="#ffffff" d="M 354.03125 336.160156 C 270.15625 432.050781 186.28125 533.933594 24.519531 533.933594 L 24.519531 593.867188 C 213.238281 593.867188 318.082031 471.007812 398.960938 375.113281 C 461.867188 300.199219 518.785156 234.277344 593.671875 234.277344 L 593.671875 174.34375 C 488.828125 174.34375 422.925781 252.253906 354.03125 336.160156 Z M 354.03125 336.160156 " fill-opacity="1" fill-rule="nonzero"/></g></svg>